<svg width="300" height="180" xmlns="http://www.w3.org/2000/svg">
 <!-- Created with Method Draw - http://github.com/duopixel/Method-Draw/ -->

 <g>
  <title>background</title>
  <rect fill="#fff" id="canvas_background" height="182" width="302" y="-1" x="-1"/>
  <g display="none" id="canvasGrid">
   <rect fill="url(#gridpattern)" stroke-width="0" y="1" x="1" height="300" width="400" id="svg_5"/>
  </g>
 </g>
 <g>
  <title>Layer 1</title>
  <ellipse stroke="#ff7f00" ry="31.5" rx="40" id="svg_1" cy="63.076634" cx="47.269588" stroke-width="1.5" fill="none"/>
  <ellipse stroke="#ff7f00" ry="31.5" rx="40" id="svg_3" cy="66.076634" cx="123.269588" stroke-width="1.5" fill="none"/>
  <ellipse stroke="#ff7f00" ry="38.5" rx="36.5" id="svg_2" cy="51.076634" cx="86.769588" stroke-width="1.5" fill="none"/>
  <rect stroke="#ffffff" id="svg_4" height="61" width="74.999999" y="40.576634" x="49.269589" stroke-width="1.5" fill="#ffffff"/>
  <rect stroke="#ff7f00" id="svg_6" height="40" width="70.000002" y="86.576633" x="52.269588" stroke-width="1.5" fill="none"/>
  <line stroke="#ffffff" stroke-linecap="null" stroke-linejoin="null" id="svg_7" y2="86.576634" x2="123.269588" y1="86.576634" x1="50.269588" stroke-width="3" fill="none"/>
  <ellipse ry="8" rx="19.5" id="svg_8" cy="150.770182" cx="45.447008" stroke-width="3" stroke="#ff7f00" fill="#ff7f00"/>
  <rect stroke="#ff7f00" id="svg_11" height="7" width="86" y="146.770184" x="55.947008" stroke-width="3" fill="#ff7f00"/>
  <ellipse stroke="#ff7f00" ry="3.5" rx="12" id="svg_12" cy="150.270183" cx="141.463137" stroke-width="3" fill="#ff7f00"/>
  <line stroke="#ff7f00" stroke-linecap="null" stroke-linejoin="null" id="svg_15" y2="149.384534" x2="39.963141" y1="150.674874" x1="140.608302" stroke-width="5" fill="none"/>
  <text font-weight="bold" font-style="italic" stroke="#ff7f00" transform="matrix(1.055299680056578,0,0,1.981113749989973,-10.04417906536797,-40.06076777141383) " xml:space="preserve" text-anchor="start" font-family="'Palatino Linotype', 'Book Antiqua', Palatino, serif" font-size="24" id="svg_17" y="58.775394" x="183.63115" stroke-width="0" fill="#ff7f00">Mi Blog</text>
  <text font-weight="bold" font-style="italic" stroke="#ff7f00" transform="matrix(1.1503285252789623,0,0,1.981113749989973,-42.23286873328366,-38.63219678561976) " xml:space="preserve" text-anchor="start" font-family="'Palatino Linotype', 'Book Antiqua', Palatino, serif" font-size="24" id="svg_18" y="82.548272" x="183.519564" stroke-width="0" fill="#ff7f00">de Cocina</text>
 </g>
</svg>