<?xml version="1.0" encoding="utf-8"?>
<!-- Generator: Adobe Illustrator 18.0.0, SVG Export Plug-In . SVG Version: 6.00 Build 0)  -->
<!DOCTYPE svg PUBLIC "-//W3C//DTD SVG 1.1//EN" "http://www.w3.org/Graphics/SVG/1.1/DTD/svg11.dtd">
<svg version="1.1" id="Слой_2" xmlns="http://www.w3.org/2000/svg" xmlns:xlink="http://www.w3.org/1999/xlink" x="0px" y="0px"
	 viewBox="0 412 1590 490" enable-background="new 0 412 1590 490" xml:space="preserve">
<path fill="#000000"    d="M1584.2,539.2c2.5-3.8,2.3-11,0.7-15.4
	c-3.4-9.7-11.8-18.7-19.7-25.2c-8.1-6.6-18.7-10.5-28.5-12.3c-2.5-0.5-4.8-0.8-7.2-2.1c-2.1-1.2-3.8-3-5.8-4.4
	c-4.5-3-9.8-3.3-14.8-4.1c-2.7-0.4-5.2-1.3-8.1-1.5c-2.1-0.1-6.6,0.4-8.5-0.7c-1.1-0.5-1.9-2.1-2.7-2.9c-1.1-0.9-2.1-1.3-3.6-1.7
	c-2.8-0.8-5.4-0.8-8.3-1.1c-0.4-2.3-3-7.6-5.6-7.7c-0.9,4.1-3.2,1.2-4.5-0.8c-1.3-2-2.3-4.1-4.2-5.6c-1.3-0.9-5.2-3.3-6.8-2.5
	c-1.2,0.5-0.9,2.1-1.6,2.9c-0.7,0.9-2.3,0.8-2.1,2.4c-1.6,0.1-6.1-1.1-6.6-0.7l-2-0.3c-0.9-1.9-2-3.7-2.7-4.5
	c-1.2-1.2-1.3,1.6-1.2,4l-0.8-0.1c-0.9-2.9-2.9-7.6-6.6-9.9c-6.4-4-10.6-3.7-10.6-3.7s3.7,3.3,6.1,9.4c0.7,1.9,1.3,3.4,1.7,4.8
	c-0.4,0.1-0.9,0.3-1.3,0.4c-2.7-4-6.8-9.8-9.8-13.4c-4.9-5.8-16.6-12.5-16.6-12.5s6.4,7,9.8,16.2c2.1,5.4,4,10.5,5.2,13.6
	c-0.1,0.1-0.4,0.1-0.5,0.3c-2.5-4.8-7.2-13.1-8.9-16.7c-2.5-5.2-14.7-19.6-14.7-19.6s2.8,11,5.4,19.9c1.9,6.2,4.9,15.8,6.8,20.9
	c-0.3,0.1-0.4,0.1-0.7,0.3c-2.5-4.8-7.2-13.1-9.5-17.2c-3.6-5.8-17.1-21.7-17.1-21.7s6.1,18.7,9.8,28.1c2.4,5.8,4.6,11.9,6.1,15.6
	c-0.1,0-0.3,0.1-0.4,0.1c-2.4-4.6-6.9-12.9-11.4-18.7c-6.5-8.5-14.3-16.2-14.3-16.2s6.8,15,10.1,23.8c2.3,6.1,5,12.3,6.8,15.6
	l-0.1,0.1c-2.3-3.8-6.9-11.3-11.4-16.4c-6.4-7.3-16.2-13.8-16.2-13.8s7.7,11.9,10.6,18.5c2,4.6,5.2,13.2,7,18l0,0
	c-2.3-5.6-6.9-16.6-9.5-18.7c-3.6-2.8-13.4-12.6-13.4-12.6s6.8,14,9.4,21.3c1.7,4.9,3.8,11.3,4.9,14.8c-0.1,0-0.3,0.1-0.4,0.1
	c-1.9-3.8-5.6-10.9-8.6-14.6c-4.2-5.2-12.9-15.2-12.9-15.2s7,12.9,9.1,19.5c1.1,3.3,2.4,7.7,3.6,11.3c-1.3-3.7-3-8.1-5.2-10.3
	c-4-4.5-6.5-5.8-6.5-5.8s4.5,9.4,5.2,17.4c0.1,2.3,0.3,4.1,0.3,5.8c-0.3,0.1-0.4,0.3-0.7,0.4c-0.4-3.2-1.3-7-3.6-9.4
	c-4.5-4.6-10.3-8.9-10.3-8.9s4.6,11.5,6.1,18.3c0.3,1.3,0.5,2.5,0.7,3.7c-0.5,0.3-1.1,0.5-1.6,0.8c-1.6-5.3-4.2-12.9-6.5-17.1
	c-3.7-6.8-7.7-9.8-7.7-9.8s4.2,17.4,4.9,23.9c0.3,2.3,0.3,4.5,0.4,6.6c-0.3,0.1-0.5,0.1-0.8,0.3c-0.5-3.7-1.2-8.1-2.1-9.4
	c-1.9-2.5-5.8-5.2-5.8-5.2s0.5,9.4,0,12.6c-0.1,1.3-0.5,3-0.9,4.6c-0.3,0-0.4,0.1-0.7,0.1c0.5-7,1.3-20.3-0.4-23.6
	c-2.4-4.5-3.7-4.6-3.7-4.6s-0.7,5.8-2.8,15.9c-1.3,6.4-2.6,11.3-3.4,14c-0.3,0-0.5,0-0.7,0c0-3.7,0.1-10.5,0-13.2
	c-0.3-3.7-5.2-18.7-5.2-18.7s0.5,10.1,0,17.8c-0.3,4.5-1.1,10.3-1.7,14.4h-0.1c0.4-4.2,0.7-10.7-0.7-17.4
	c-2.1-11.3-4.9-13.1-4.9-13.1s1.7,8.5,0,19.5c-0.7,4.8-1.2,8.5-1.3,11h-0.1c0.1-5.3,0.1-13.5-1.1-18.5c-1.9-7.7-4.6-11-4.6-11
	s0.9,10.1-2.4,21.3c-0.9,3.2-1.7,5.8-2.3,8c-0.3,0-0.4,0-0.7,0c-0.1,0-0.1,0-0.3,0c0.4-5.4,0.5-12.5-0.8-17.4
	c-2.5-8.6-6.5-14-6.5-14s0,9.1,0,18c0,4.6-0.4,9.4-0.9,12.9h-0.1c0.5-5,0.8-12.5-0.7-16.2c-2.4-5.8-8.5-17.1-8.5-17.1
	s0.7,8.9,0,19.6c-0.4,5.4-0.8,9.7-1.2,12.5c-0.4,0-0.8,0-1.2-0.1c-0.7-4.1-1.9-10.7-3.8-16.4c-3.3-9.1-6.5-9.5-6.5-9.5
	s1.2,7.3,1.6,15.6c0.3,4.2,0.5,7.7,0.8,10.1c-0.3,0-0.5,0-0.8,0c-1.6-4.9-4.9-13.5-8.9-18.8c-5.8-7.7-10.3-9.4-10.3-9.4
	s4,7,5.6,16.2c0.9,4.8,1.2,9.8,1.3,13.4c-0.3,0-0.5,0-0.8,0.1c-0.8-4.4-2.4-10.7-5-16.6c-4.5-10.1-10.7-13.4-10.7-13.4
	s4.2,14,5.4,19.2c0.7,3,1.2,7.9,1.6,11.3c-0.3,0-0.4,0-0.7,0c-1.2-4.5-3.4-11.9-6.2-16.7c-4.2-7.3-9.5-9.1-9.5-9.1s2.8,8.5,4.9,17.4
	c0.9,3.7,1.5,6.6,1.7,8.9c-0.3,0-0.7,0-0.9,0c-2.4-8.2-7-23.7-10.5-27.2c-4.6-4.6,0.7,3.3,1.6,15.2c0.4,5.3,0.5,9.3,0.5,11.9
	c-0.7,0-1.3,0-2,0c-1.5-4.1-3.6-9.7-5-12.5c-2.5-4.6-9.8-11.3-9.8-11.3s1.2,7.7,3.3,15.6c0.9,3.3,1.5,6,1.7,7.9c-0.4,0-0.9,0-1.3,0
	c-1.6-3.4-4-8.5-6.5-13.1c-4.5-8.2-11.3-12.6-11.3-12.6s5.2,10.3,6.4,15.6c0.5,2.6,1.3,6.6,2,10.1c-0.8,0-1.7,0-2.7,0
	c-2.3-3.7-4.9-8.1-6.6-10.1c-3.6-4-12.6-10.1-12.6-10.1s3.7,6.8,8,14.6c1.2,2.3,2.1,4.1,2.9,5.6c-0.7,0-1.3,0-1.9,0
	c-1.7-2.3-4-5-6.5-8.5c-6.8-8.9-12.2-10.6-12.2-10.6s2.5,6.4,6.5,14.7c1.1,2.1,1.9,4,2.5,5.6c-0.8,0.3-1.6,0.4-2.4,0.7
	c-2.3-2.9-5.2-6.5-8.3-9.9c-7-8-12.5-8.6-12.5-8.6s5.6,7.7,8.2,12.6c1.3,2.4,2.6,6.1,3.6,9c-0.7,0.3-1.2,0.4-1.9,0.7
	c-1.6-2.3-3.6-5.3-5.7-8.6c-4.9-7.7-14.6-10.7-14.6-10.7s4.6,4.9,7.3,10.3c1.3,2.9,3.3,8,4.9,12.1c-0.3,0.1-0.5,0.3-0.9,0.3
	c-0.3,0.1-0.4,0.1-0.7,0.3c-2.1-3.3-4.5-7-5.7-9.1c-2.4-4.2-2.5-4.5-6.4-7.7c-3.7-3.3-9.1-5.6-9.1-5.6s4.9,6.8,8.5,13.4
	c2,3.8,3.8,8.3,5,11.4c-0.4,0.1-0.8,0.3-1.2,0.3c-1.7-2.3-4.1-5.3-7.2-8.7c-5.8-6.5-15.5-10.1-15.5-10.1s6.1,7,9.1,12.9
	c1.5,2.8,2.8,6,3.7,8.3c-0.4,0.1-0.8,0.3-1.2,0.3c-1.9-2.9-4.4-6.8-6.5-9.9c-4-5.8-13.5-12.5-13.5-12.5s7.3,9.8,8.9,16.6
	c0.7,2.9,1.2,6.1,1.5,8.9c-0.3,0.1-0.5,0.1-0.8,0.3c-0.1,0.1-0.4,0.1-0.7,0.3c-1.7-4.6-4.5-10.5-8.1-12.7c-6.4-4-14.7-6.4-14.7-6.4
	s9.5,7,11.9,13.4c1.2,3.3,2.5,6.4,3.6,8.5c-0.3,0.1-0.5,0.3-0.8,0.3c-2.4-2.8-5.8-6.6-8.3-7.7c-2.1-0.8-6.1-1.2-9.4-1.5
	c-2.1-2.3-4.2-4.1-5.8-4.9c-6.1-3-7-0.3-7-0.3s11.3,10.6,13.5,16.2c0.7,1.5,1.2,2.9,1.6,4.1c-0.5,0.1-0.9,0.4-1.5,0.5
	c-2.7-3.7-6.6-8.7-10.5-11.4c-6.5-4.6-13.5-5.8-13.5-5.8l10.6,11.7c0,0,4.9,3,7.3,8.1c-1.1,0.4-2.1,0.9-3.2,1.3
	c-1.9-1.9-3.8-4.1-5.6-6c-4.5-4.6-14.3-7.6-14.3-7.6s5.2,5.4,8.5,9.8c1.7,2.3,3.2,4.6,4.2,6.4c-0.3,0.1-0.5,0.1-0.8,0.3
	c-2.4-2.4-6.2-6.1-8.6-8.2c-3.7-3.3-11.9-6.5-11.9-6.5l8.5,10.7c0,0,2.7,3.7,4.8,6.6c-0.3,0.1-0.7,0.3-0.9,0.3c-3.4-3.3-8.1-8-8.1-8
	l-12.6-7.3c0,0,4,3.3,8.5,10.6c1.9,3,3.3,5.4,4.5,7.3c-0.4,0.1-0.8,0.3-1.2,0.4c-2.4-2.4-5.8-5.6-9.4-8.9
	c-6.5-6.1-12.2-6.4-12.2-6.4s5.4,7,9.8,13.4c1.3,1.9,2.3,3.4,3,4.8c-0.3,0.1-0.5,0.1-0.8,0.3c-2.1-3-4.9-6.6-7-8.3
	c-4-3.3-12.6-6.8-12.6-6.8s6.2,5.3,10.1,11.3c1.7,2.7,2.9,4.6,3.7,6.1c-0.3,0.1-0.7,0.3-0.9,0.4c-1.7-1.6-4.2-4-8.2-7.6
	c-8.5-7.7-12.6-7-12.6-7l7,10.6l4.6,7.7c-0.1,0-0.1,0.1-0.3,0.1c-1.3-1.6-3.7-3.8-7.6-6.9c-8.2-6.5-11-5.6-11-5.6l10.7,15.9
	c0,0-0.1,0-0.1,0.1c-2.1-2.7-5.3-6.2-9.4-9.7c-7.3-6.1-10.3-6.4-10.3-6.4s4.9,7,8.2,14c1.1,2.3,1.9,4.2,2.5,6
	c-0.3,0.1-0.7,0.3-0.9,0.4c-1.9-3.3-4.8-7.4-8.3-10.1c-6.8-5.2-11.7-5.4-11.7-5.4s5.2,6.1,7.9,11.7c1.5,3,2.7,5.8,3.4,7.8
	c-0.3,0.1-0.5,0.3-0.7,0.4c-1.9-2.5-5.2-6.4-9-9c-6.1-4.2-11.7-5.2-11.7-5.2s7.2,7.2,10.1,12.5c1.1,2,2.1,3.8,2.9,5.3
	c-0.5,0.3-1.1,0.5-1.6,0.7c-1.9-1.9-4.4-4.4-7.4-8.1c-7.3-8.6-11.5-7.6-11.5-7.6s6.5,7.2,7.7,13.5c0.5,2.4,1.1,4.6,1.5,6.4
	c-0.1,0.1-0.4,0.1-0.5,0.3c-1.7-3.3-4.1-7.3-7-9.1c-5.2-3.3-12.9-4.9-12.9-4.9s4.9,5.4,7.3,11.9c1.1,2.8,1.9,4.9,2.4,6.5
	c-0.4,0.1-0.9,0.4-1.3,0.5c-2.3-2.8-5.6-6.9-8.3-8.7c-4.6-3-11.3-4.5-11.3-4.5s4.8,4.4,8,10.6c1.3,2.7,2.5,4.8,3.3,6.2
	c-0.3,0.1-0.4,0.1-0.7,0.3c-1.3-1.3-3.2-3-5.4-4.6c-4.6-3.3-9.8-4.9-9.8-4.9s1.9,2.4,4.2,5.8c1.3,1.9,2.8,4.6,3.8,6.9
	c-0.4,0.1-0.7,0.3-1.1,0.4c-2-2-4.6-4.5-7-6c-4.2-2.5-10.3-4-10.3-4s6.2,5.6,8.2,9.4c0.7,1.2,1.3,2.5,1.9,3.8
	c-0.5,0.3-1.1,0.5-1.6,0.7c-2.5-2.7-5.4-5.7-7.2-6.6c-3.3-1.9-7-2.5-7-2.5s8.3,7.6,9.3,11.8l0,0c-0.4,0.3-0.7,0.4-1.1,0.7
	c-2.7-3.3-6-7.2-8.2-8.5c-4.5-2.4-6.1-1.2-6.1-1.2s5.6,7.6,9.4,12.7c-0.1,0.1-0.3,0.1-0.4,0.3c-1.7-1.7-4-3.7-6-4.8
	c-5.4-2.8-8.9-1.6-8.9-1.6s6.4,4.9,9.9,9.9c-0.5,0.4-1.1,0.8-1.6,1.2c-1.9-1.7-4-3.8-5.7-5.2c-4.6-3.6-8.6-3.6-8.6-3.6
	s4.5,4,6.5,8.2c0.7,1.5,1.5,2.9,2,4.2c-0.1,0.1-0.3,0.3-0.5,0.3c-1.5-2-3.3-4.1-5-5c-3.7-1.9-9.5-3.7-9.5-3.7s5,6.2,6.5,9.1
	c0.4,0.8,0.9,1.9,1.5,2.9c-0.4,0.1-0.9,0.4-1.5,0.5c-1.9-2.3-4.1-4.6-5.4-5.3c-2.5-1.5-7.3-2.8-7.3-2.8s4,6.1,4,6.8s1.5,3.7,1.5,3.7
	l0,0c0,0-4-2.1-5.4-4s-5.2-3-5.2-3s2.9,3.6,4.9,8.7c-0.5,0.1-1.1,0.3-1.7,0.5c-1.1-1.7-2.3-3.4-3.2-4c-2.8-1.9-5.8-4-5.8-4
	s2.5,5.4,4.1,9.4c-0.3,0-0.4,0.1-0.7,0.1c-0.9-1.5-2.1-2.9-3.4-4c-4-2.8-7.7-2.8-7.7-2.8s2.6,4.1,4.9,8.3c-0.3,0-0.4,0.1-0.7,0.1
	c-1.2-1.6-2.6-3.3-4.2-4.4c-4.2-2.8-8.2-4-8.2-4s4,4.8,6,9.9c-0.4,0.1-0.9,0.3-1.3,0.4c-1.5-2.3-3.4-5.2-4.6-5.8
	c-2.5-1.5-6.8-3.7-6.8-3.7s4.1,4.9,6.5,10.9c-0.8,0.1-1.6,0.4-2.4,0.5c-1.5-2.1-3-4.2-4.1-5.3c-3-2.8-6.5-4.5-6.5-4.5
	s3.2,6.1,5.3,11c-0.7,0.1-1.2,0.3-1.9,0.4c-1.5-2.4-2.9-5-3.4-5.4c-1.2-0.9-7.7-5.2-7.7-5.2s4,7.7,6.1,11.7
	c-0.4,0.1-0.8,0.1-1.3,0.3c-1.7-1.6-3.8-3.6-4.9-4.6c-2.1-2.1-4.9-2.5-4.9-2.5s0.9,3,3,8.6c-0.7,0.1-1.3,0.3-1.9,0.4
	c-0.8-0.8-1.6-1.7-2.4-2.4c-2.4-2.1-6-3.6-7-3.8c0.4,0.5,1.3,2.3,3.4,7.3c-0.8,0.1-1.7,0.3-2.5,0.3c-0.8-0.9-1.7-2-2.6-2.8
	c-4-3.3-8.5-4.6-8.5-4.6s2.4,3.4,5.2,8.1c-0.9,0.1-2,0.1-2.9,0.3c-0.7-0.8-1.3-1.6-2.1-2.3c-3.6-2.8-11.9-8.6-7-1.2
	c0.9,1.5,1.9,2.8,2.8,4c-1.1,0.1-2.1,0.1-3.2,0.3l0,0c-6.5-5.3-15.1-8.3-7.9,0.7l0,0c-0.5,0-0.9,0.1-1.5,0.1l0,0
	c-4.2-4.8-14.7-8.1-9.1,0.7l0,0c-0.5,0-1.1,0.1-1.6,0.1l0,0c-2.3-3.4-12.9-11.5-5.8,0.4c-0.8,0-1.6,0.1-2.4,0.1l0,0
	c0,0-12.2-12.2-6.1,0.4c-0.9,0-1.9,0.1-2.8,0.1c-4.1-4-9.3-8.2-5.3,0.3l0,0c-1.5,0.1-2.8,0.1-4.1,0.3c0,0-13-12.2-5.8,0.3l0,0
	c-1.6,0.1-2.9,0.1-4.2,0.1l-2.5-2.9l-1.3,3.2c-0.9,0-1.6,0-2.1,0.1l-5.2-4l-1.5,4.2c-0.8,0-1.5,0-2.3,0.1l-3.4-4.5l-2.1,4.6
	c-0.5,0-1.2,0-1.7,0l-4.2-5.4l-3,5.4c-0.8,0-1.6,0-2.3,0l-2.9-6l-3.4,6l0,0l-4.6-5.4l-3,5.3c-0.9,0-1.7,0-2.7-0.1l-4.4-5.7l-0.9,5.6
	c-0.7,0-1.2,0-1.9-0.1l-5.4-5.2v5c-0.8,0-1.5,0-2.3-0.1l-4.6-5.4v5.2c-0.7,0-1.3-0.1-2.1-0.1l-4.8-4.5l-0.5,4.2c-2-0.1-4-0.3-6-0.4
	l-2-2.5l-0.9,2.3c-2.3-0.1-4.6-0.3-6.9-0.5l-2.3-1.7v1.6c-41.6-3.2-83.9-8.5-122.7-11.7c-31.5-2.5-155.8-24.5-186.3-28.8
	c-32.9-4.6-64.8-4.4-101.2-3.3c-31.5,0.9-64.9-2.6-97.5,2.9c-57.1,10.3-115.4,31-164,66.1c18.8,5.7,57.9-18.2,75.3-26.5
	c25.2-12.1,47.7-16.8,75.4-19.3c24.2-2.3,60,3.8,78.4,5.8c25.8,2.8,110,10.5,119,11.3c12.1,1.1,23.8,2.9,35.8,5.2
	c12.1,2.3,58.7,13.5,69.8,17c12.7,4,24.9,8.9,37.6,12.6c7.6,2.1,15.1,4,22.8,5.7c7.4,1.7,171.3,35.9,179,37.2
	c8.7,1.5,17.8,3.3,26.4,5.3c19.1,4.5,78.7,10.6,88.9,12.2c8.2,1.3,39.1,2.4,45.8,2.8c2.8,0.1,13.9,0.1,16.8,0.4
	c-1.2,1.6-4,3.3-5.7,4.8c-1.9,1.6-3.6,3.2-5,5c-2.9,3.6-7.8,8.6-7.6,13.5c-2.8,0-6.4,1.2-9.1,1.9c-3,0.7-5.8,0.7-9.1,0.4
	c-2.9-0.3-5.7-1.3-8.7-1.5c-3-0.1-5.3,1.3-8.3,1.5c-5.4,0.4-11-0.4-16.6-0.8c-2.8-0.3-5.4-0.1-8.2,0.4c-2.5,0.4-4.1,2.6-6.4,3.4
	c-1.2,0.4-2.5,0.4-3.7,0.8c-1.2,0.4-2.1,0.9-3.2,1.7c-2,1.5-4.5,3.3-4.9,5.7c-0.5,2.5,0.5,5.6,2.5,6.9c1.3,0.9,4,2.6,5.4,3.2
	c-0.3-1.1-1.7-4.4,0.7-4.2c-0.3-2.4,0.8-5.3,3.2-6.4c1.5-0.7,1.9,0.1,3.6,0.4c1.5,0.3,3,0,4.5,0c3,0,5.8-0.1,8.7-0.4
	c3-0.3,6.9-1.5,9.8-1.1c2.9,0.3,5.4,2.7,8.5,2.8c2.9,0.3,6-0.1,8.7-0.4c3.3-0.3,5.6-0.5,8.7,0.1c2.9,0.5,6.2,0.3,9.1-0.1
	c5.8-0.8,10.7-0.9,16.4,1.5c2.3,0.9,4.5,2.1,6.8,3c2.8,1.1,5.8,0.5,8.7,0.8c0.9,4.5-5.3,10.2-6.8,14.3c-0.8,2.4-0.9,4.8-1.6,7.2
	c-0.7,2.4-2.1,4.5-3.3,6.6c-2.4,4.8-2.7,9.7-3.6,14.7c-0.8,4.8-3,9.7-4.1,14.4c-0.7,2.9-0.7,5.8-1.5,8.7c-0.8,2.5-1.7,5.3-2.4,7.8
	c-1.3,5.4-4.4,10.6-5.3,16.2c-0.5,2.6,0.4,5.2,0.8,7.7c0.4,2.7-0.7,5.6-1.3,7.8c-0.8,2.6-2.3,5.3-3.2,8c-0.9,2.5-1.1,5.7-2.1,8.1
	c2.8-1.1,5.6-7.2,6.8-9.8c1.5-3.2,10.7-16.4,11.1-24.9c0.1-3,0.5-5.2,1.7-7.8c1.2-2.7,2.5-5.2,3.3-8c1.2-5,3.6-10.1,4.8-15.2
	c0.7-2.5,0.4-5.4,1.1-8c0.8-2.8,2.9-5,4-7.7c2-4.8,4.2-9.3,5.8-14c1.7-5,5.6-9.3,7.4-14.3c1.7-4.4,1.1-10.1,5.8-13.4
	c1.9-1.2,4.8-2.3,6.8-1.2c2.5,1.3,2.5,3.3,3.4,5.6c2,4.6,6.2,8,8.3,12.7c0.9,2.3,1.3,4.5,2.9,6.6c1.5,2,3.7,3.4,5.3,5.6
	c1.6,2.3,1.3,4.6,2.4,7.2c0.9,2.3,2.6,4.2,3.8,6.4c1.1,2,2.5,3.7,3.3,5.6c1.1,2.7,0.1,6.1-0.3,8.7c-0.4,2.8-0.8,5.2-0.8,8.1
	c0,3-1.1,4.6-2.4,7.3c7-0.5,11.1-9.7,11.3-15.8c0-4-0.7-8-0.4-11.9c0.3-3.7,0.1-7.6-1.1-10.9c-0.8-2.4-1.1-5.2-2.5-7.4
	c-1.5-2.1-3.2-3.4-4.1-6c-1.7-4.6-2.8-10.2-5.3-14.3c-1.1-1.6-3.4-4.1-3.4-6.1c0-1.5,0.4-1.5,2.1-1.7c1.3-0.3,2.5-0.5,3.6-0.9
	c2.4-0.9,4.5-2.4,6.9-2.5c1.5-0.1,2.8-0.1,4.2-0.3c1.5-0.1,2.6,0.1,4.1,0c0.9,2.8-3.7,5.3-3.4,8.1c0.1,1.2,1.3,2.3,1.5,3.4
	c0.1,1.2-0.4,2.8-1.1,3.8c5,0.5,6.4-4.6,10.1-6.9c0.1,1.3-0.9,2.7-1.2,3.8c-0.4,1.5-0.5,2.9-0.4,4.5c0.1,1.6,0.5,2.8,0,4.5
	c-0.5,1.3-1.6,2.4-1.6,3.8c2.1-1.2,4.4-0.8,6.5-2.5c1.9-1.6,3.3-3.3,4.4-5.4c2.1-4.1,2-9.4,1.3-14.2c-0.7-4.6-1.9-9.4-3.4-13.8
	c-1.2-3.2-7.2-6.2-7-9.7c4.5-0.4,10.3-4.5,13.6-7.4c2.1-1.7,3.3-0.3,5.3,0.9c2.4,1.3,4.8,2.3,7.3,3.3c14.2,6,29.5,9.7,44.5,13.1
	c19.2,4.5,39.4,6.8,59.1,6.8c0,0,62.8-0.7,92.6-8.3c1.3,4.4,1.6,9.1,3.2,13.6c1.6,4.5,4.4,8.6,6,13.1c2.9,8.2,7,17.4,11.4,24.8
	c2.8,4.8,6.5,8.7,11.8,11c2.7,1.2,5.2,0.3,6.9,2.8c1.9,2.6,1.6,4.8,2.4,7.7c0.5,2.3,2.1,4.5,2.1,7c0,2.7-0.3,14.6-0.4,17.5
	c0,2,0,5.8,1.5,7.3c2.1-1.9,3.3-6.8,3.7-9.4c0.5-3.4,0.8-7.4,1.1-10.9c0.3-2.8,0-5.3,1.2-7.7c1.2-2.4,2.4-4.1,3-6.6
	c0.7-2.7,0.8-4.6,3.2-6.1c2.7-1.5,6-1.1,8.7-0.7c10.3,1.7,20.7,5,30.9,7c6,1.2,10.7-2,16.6-2c5,0,10.7,1.2,15.1,3.6
	c5.2,2.8,5,9.3,4.2,14.3c-0.4,2.7-1.3,4.5-0.7,7.3c0.8,2.9-0.5,3.7-1.1,6.4c3.6,0.3,6.8-5.8,7.6-8.5c1.5-4.2,1.5-9.7,1.2-14.3
	c-0.4-4.5-2-8.9-2.8-13.4c-0.8-4.4-3.6-6.5-6.2-9.8c2.7-1.1,5.2-2.5,7.8-3.6c2.8-1.1,5.8-1.1,8.7-1.9c1.1-0.3,3.6-1.5,4.6-0.4
	c0.8,0.8,0.1,3.4,0.7,4.6c0.7,1.5,1.7,1.9,2,3.6c0.3,1.6-0.1,3.3,0,4.9c3-0.5,3.7-5,4.5-7.2c0.4,1.5,0.9,2.9,1.1,4.4
	c0.3,1.6-0.1,3.6,0,5c0.1,1.7,1.1,2.8,0.9,4.9c-0.1,1.6-0.1,2.8-1.1,4.1c4-0.9,6.4-6.4,7.3-8.7c1.6-4.1,0.5-9-1.3-12.9
	c-1.7-3.4-3.7-6.6-6.4-9.7c-2.7-3.2-3.6-6.8-6.8-9.5c-2-1.7-6.4-2.5-6.4-2.5s-4-5-7.4-5.4c-5.3-0.7-10.2,3.3-13.9,6.6
	c-1.7,1.6-3.7,3.2-5.7,4.8c0-6.8-4.1-11.9-9.9-15.6c-2.1-1.3-4.4-2.5-6.9-2.5c-2.8,0-4.5,2-6.6,3.6c-4.6,3.4-7.3,8.1-11.7,11.9
	c-1.6,1.3-2,2.1-3.8,2.1c-1.1,0-2.8-0.7-3.8-0.9c-2.7-0.8-5-2-7.4-2.8c-3.2-1.1-4.4-1.2-5.2-4.6c-0.7-2.8-0.9-5.6-1.5-8.5
	c-0.9-5.6-0.3-11.3-1.5-16.8c-1.2-5.2-2.7-10.6-3-15.9c-0.1-0.9-0.4-3.7,0.1-4.5c0.4-0.7,2-1.2,2.8-1.6c2.1-1.3,4.1-3,6.5-4.2
	c5.8-2.9,77.8-25.3,80.7-25.8c2.5-0.5,6.4-2.1,8.1-2.1l3.2-0.7c0.8,2.1,1.1,4.4,2.3,6.6c1.1,2,2.1,4,3,6.1c2.1,5.2,4.5,9.4,7.9,13.9
	c3,4.2,20.3,29,21.6,31.3c1.1,1.7,2.9,3.7,3.6,5.6c-1.7,2.5-2.7,7.8-3,10.6c-0.4,2.6-2.1,6.4,0.7,10.5c3.6-3.6,3.7-9.5,6.5-13.6
	c2.7,2.3,5.8,3.6,9,4.1c3.4,0.5,6.8,2.3,10.2,2.5c4.1,0.3,8.3,1.1,12.3,1.3c3.2,0.3,8.7,0.7,11.4-0.9c0.5,4.1-3.4,11.5-6.2,14.7
	c1.7,0.3,5.2-1.2,6.6-2.1c2-1.3,4.5-4,6-5.8c0.5-0.7,1.2-2.8,1.9-3s2.7,0.8,3.3,1.1c2,0.9,4.1,2,6.4,1.7c2.3-0.3,4.9-2.3,6.9-3.3
	c2.5-1.2,3.2-2.4,6.1-2.4c1.3,0,2.8,0,4.1,0.1c1.7,0,2.4-0.4,2.5,1.7c0.1,1.9-1.3,5.7,0.7,7c0.1-0.5,0.5-0.8,0.7-0.9
	c0,2,0.9,3.4,0.8,5.6c-0.1,1.7-0.5,3.6-1.1,5.2c5-2.7,7.3-8.1,7.7-13.2c0.3-2.9-0.8-6.2,1.1-8.3c1.7-1.9,4.5-2.8,6.6-4
	c4.1-2.3,8.2-4.5,12.2-7c4.4-2.8,9-6.2,14.4-5.2c3.2,0.5,2.8,3,3.2,5.7c0.4,2.5,2.3,4.9,1.2,7.7c-0.5,1.3-1.6,1.5-1.3,3.3
	c0.1,1.2,1.3,1.9,1.7,2.9c0.8,2.4-0.7,5.3-1.6,7.3c6.2-2.4,8.5-6.9,9.1-13.2c0.4-3.3,0.3-6.5-0.4-9.8c-0.5-3.2-0.3-6.2-1.7-9.1
	c-1.9-4-5-8.5-9.5-9.8c-2-0.5-4.9-2.1-7-1.7c-1.9,0.4-3.7,2.5-5.4,3.3c-4.6,2.1-9.1,4.5-13.5,7.2c-0.1,0.1-0.3,0.1-0.4,0.3
	c0-0.5,0-1.2-0.1-1.7c-0.5-5.4-2.8-10.9-6.8-14c-1.7-1.3-3.3-1.6-5.2-2.3c-1.7-0.5-4.1-0.9-6-0.7c-3.4,0.7-6.8,2.4-9.4,4.6
	c-4.1,3.4-9.5,4.4-13.8,7.3c-1.9,1.3-3.2,3.4-4.9,5c-2.4,2-5.2,1.2-7.9,0.1c-4.4-1.6-9.4-4.1-13.1-7c-4.4-3.6-5.4-7.6-6.4-12.9
	c-0.8-5.2-1.7-10.1-2.1-15.5c-0.4-5.6-0.3-11.4-2-16.6c-1.6-4.6-4.4-9.1-6-13.8c-0.9-2.5-1.2-4.9-2.3-7.3c-1.2-2.7-1.6-4.9-1.2-8
	c1.2,5.2,3.7,10.1,7.4,14.2c1.7,1.9,3.6,4.6,6,5.6c2.1,0.9,4.4,1.5,6.6,2.5c4.4,2.3,9,4.5,13.6,6.2c4.8,1.7,9.7,3.2,14.7,4
	c2.7,0.4,5.7,0.5,8.5,0.4c2.9-0.3,4.9-1.9,7.4-3.4c4.9-3.2,9.1-6.6,14.3-9.3c4.8-2.4,10.1-4,15.2-5.2c5.7-1.3,11.4-1.1,16.8-4
	c5.2-2.8,9.8-6.8,13.6-11.3c14-16.7,29-35.1,29.9-57.4c0.1,0.3,0.3,0.4,0.4,0.5V611c0.9,1.2,2.9,1.6,4.5,1.3
	c0.3-2.8-0.7-4.5-2.3-6.8c-1.3-1.7-4-3.6-4.6-5.4c1.1,0.9,2.9,1.1,4.2,2c1.2,0.8,2.3,2.1,3.2,3.2c2,2.3,4,5.4,6.5,7
	c0.4-3.8-1.1-8.2-2.4-11.9c-1.1-3.2-4.6-6.8-3.3-9.9c0.9-2,1.3-3.3,3-1.5c0.9,1.1,1.7,2.8,2.3,4c1.9,4,0.8,7.2,1.2,11.4
	c3,0.8,3.8-10.6,3.8-12.6c0-5-1.7-9-4.1-13.2c1.9,1.1,4.1,3.2,5.4,4.9c1.1,1.5,2.1,5.3,3.8,5.6c-0.3-2.9,0.8-6.2,0.4-9.4
	c-0.3-2.7-2.4-5-2.4-7.7c1.5,0.5,3.2,2.4,3.8,3.7c0.7-1.9,0.3-3.7,0-5.6c-0.3-1.3-1.3-3.2-1.1-4.5c1.2,0,2.1,0.9,3,1.7
	c0.5-1.9,0.3-3.8,0.5-5.8c3.8-0.1,2.5-2.4,4.9-4.5c1.9-1.6,3.8-3.2,5.4-5C1581.1,550.3,1588,539,1584.2,539.2z M1285.2,787.4
	c2.7,1.3,1.5,4.6,1.2,7.4c-1.7,0.5-3.6,1.2-5.3,1.6c-2.4,0.7-5.8,1.7-8.2,1.5C1276,793.5,1281.5,790.7,1285.2,787.4z M1453.4,753.8
	c3.2-1.7,11.7-8.1,13.5-2.4c0.8,2.4-0.1,6-0.4,8.5c0,0.4-0.1,0.9-0.3,1.5c-0.7,0.5-1.2,0.9-1.9,0.9c-1.2-3.7-3.4-9.7-8.5-7.6
	c-2.6,1.2-8.1,5.6-8.2,8.6c-1.6,0.1-3,0-4.5-0.8C1446.2,759.5,1449.6,756,1453.4,753.8z M1094.6,524.3c2,1.2,3.7,2.4,4.5,3.7
	c0.9,1.3,1.7,2.8,2.5,4.1c-0.3,0.1-0.4,0.1-0.7,0.3C1099.2,530,1097,527.1,1094.6,524.3z"/>
</svg>
