<?xml version="1.0" encoding="utf-8"?>
<!-- Generator: Adobe Illustrator 21.0.0, SVG Export Plug-In . SVG Version: 6.00 Build 0)  -->
<svg version="1.1" id="Layer_1" xmlns="http://www.w3.org/2000/svg" xmlns:xlink="http://www.w3.org/1999/xlink" x="0px" y="0px"
	 viewBox="0 0 312.9 312.9" style="enable-background:new 0 0 312.9 312.9;" xml:space="preserve">
<style type="text/css">
	.st0{fill:#FFFFFF;}
	.st1{fill-rule:evenodd;clip-rule:evenodd;fill:#FFFFFF;stroke:#000000;stroke-width:3.579300e-02;stroke-miterlimit:10;}
</style>
<g>
	<g>
		<path class="st0" d="M68,276.6h-5.7c-0.6,1.2-1,2.2-1.2,2.9c-0.2,0.7-0.3,1.3-0.3,1.8l0,0.2c-0.2,0-0.3,0-0.4,0
			c-0.1,0-0.1,0-0.2,0c-0.5,0-0.8-0.1-1-0.3c-0.2-0.2-0.4-0.5-0.4-0.8c0-0.4,0.7-1.9,2-4.6c1.4-2.7,2.5-5.3,3.6-7.6
			c-0.1-0.2-0.2-0.3-0.4-0.5c-0.1-0.2-0.3-0.3-0.4-0.5c0.3-0.3,0.5-0.6,0.7-0.7c0.2-0.1,0.4-0.2,0.6-0.2c0.3,0,0.6,0.2,0.9,0.6
			c0.3,0.4,0.6,1,1,2c0.3,0.8,0.8,1.9,1.4,3.4c1.9,4.9,3.3,7.7,4.1,8.4c-0.3,0.3-0.5,0.5-0.7,0.6c-0.2,0.1-0.5,0.2-0.7,0.2
			c-0.7,0-1.5-1.2-2.4-3.6C68.3,277.4,68.2,276.9,68,276.6z M65.3,269.9l-0.5,1.2c-0.8,1.9-1.4,3.3-1.8,4.2h4.4
			c-0.4-1-0.7-1.9-1.1-2.8C66,271.5,65.7,270.7,65.3,269.9z"/>
		<path class="st0" d="M76.8,281c-0.3,0.2-0.6,0.3-0.8,0.4c-0.3,0.1-0.5,0.1-0.7,0.1c-0.3,0-0.6-0.1-0.7-0.3
			c-0.1-0.2-0.2-0.6-0.2-1.1c0-0.7,0-1.9,0.1-3.8c0.1-1.9,0.1-3.4,0.1-4.6c0-1.5,0-2.6-0.1-3.4c-0.1-0.8-0.2-1.4-0.5-1.8
			c0.3-0.2,0.5-0.3,0.8-0.4c0.3-0.1,0.5-0.1,0.7-0.1c0.4,0,0.6,0.1,0.7,0.3c0.1,0.2,0.2,0.5,0.2,1.1c0,0.4,0,1.6-0.1,3.5
			c-0.1,1.9-0.1,3.6-0.1,5c0,1.6,0,2.7,0.1,3.4C76.4,280,76.6,280.6,76.8,281z"/>
		<path class="st0" d="M82.3,281c-0.3,0.2-0.6,0.3-0.8,0.4c-0.3,0.1-0.5,0.1-0.7,0.1c-0.3,0-0.6-0.1-0.7-0.3
			c-0.1-0.2-0.2-0.6-0.2-1.1c0-0.7,0-1.9,0.1-3.8c0.1-1.9,0.1-3.4,0.1-4.6c0-1.5,0-2.6-0.1-3.4c-0.1-0.8-0.2-1.4-0.5-1.8
			c0.3-0.2,0.5-0.3,0.8-0.4c0.3-0.1,0.5-0.1,0.7-0.1c0.4,0,0.6,0.1,0.7,0.3c0.1,0.2,0.2,0.5,0.2,1.1c0,0.4,0,1.6-0.1,3.5
			c-0.1,1.9-0.1,3.6-0.1,5c0,1.6,0,2.7,0.1,3.4C82,280,82.1,280.6,82.3,281z"/>
		<path class="st0" d="M94.2,281c-0.3,0.2-0.6,0.3-0.8,0.4c-0.3,0.1-0.5,0.1-0.8,0.1c-0.3,0-0.6-0.1-0.7-0.3
			c-0.1-0.2-0.2-0.6-0.2-1.1c0-0.3,0-1,0.1-2.2c0.1-1.1,0.1-2.1,0.1-2.9c0-0.9,0-1.6-0.1-2.1c-0.1-0.5-0.2-1-0.4-1.4
			c0.3-0.2,0.5-0.3,0.8-0.4c0.3-0.1,0.5-0.1,0.8-0.1c0.3,0,0.5,0.1,0.7,0.2c0.1,0.2,0.2,0.5,0.2,0.9c0,0.1,0,0.7-0.1,1.8
			c-0.1,1.1-0.1,2.2-0.1,3.2c0,0.9,0,1.7,0.1,2.3C93.9,280.1,94,280.6,94.2,281z M94.2,267.8c0,0.4-0.1,0.7-0.4,1
			c-0.3,0.3-0.6,0.4-1.1,0.4c-0.4,0-0.7-0.1-0.9-0.3c-0.2-0.2-0.3-0.5-0.3-0.9c0-0.4,0.1-0.7,0.4-1c0.3-0.3,0.6-0.4,1-0.4
			c0.4,0,0.7,0.1,0.9,0.3C94,267.2,94.2,267.5,94.2,267.8z"/>
		<path class="st0" d="M99,273.4c0,0.8,0,1.6-0.1,2.5c0,0.9,0,1.4,0,1.5c0,0.9,0,1.7,0.1,2.2c0.1,0.6,0.2,1,0.4,1.4
			c-0.3,0.2-0.6,0.3-0.8,0.3c-0.2,0.1-0.5,0.1-0.7,0.1c-0.3,0-0.5-0.1-0.7-0.3c-0.1-0.2-0.2-0.6-0.2-1.1c0-0.1,0-0.8,0.1-1.9
			c0.1-1.2,0.1-2.3,0.1-3.3c0-1,0-1.8-0.1-2.3c-0.1-0.5-0.2-1-0.4-1.5c0.2,0,0.3-0.1,0.5-0.1c0.2,0,0.3,0,0.5,0
			c0.4,0,0.7,0.1,0.9,0.3c0.2,0.2,0.3,0.5,0.4,0.9c0.5-0.4,1.1-0.7,1.7-0.9c0.6-0.2,1.2-0.3,1.7-0.3c0.7,0,1.3,0.2,1.9,0.5
			c0.6,0.3,1,0.7,1.3,1.3c0.2,0.4,0.3,0.8,0.4,1.3c0.1,0.5,0.1,1.2,0.1,2.3c0,0.1,0,0.4,0,0.7c0,0.4,0,0.7,0,1c0,0.7,0,1.3,0.1,1.9
			c0.1,0.5,0.2,0.9,0.4,1.2c-0.3,0.2-0.6,0.3-0.9,0.4c-0.2,0.1-0.5,0.1-0.7,0.1c-0.3,0-0.6-0.1-0.7-0.3c-0.1-0.2-0.2-0.5-0.2-1
			c0-0.3,0-0.9,0.1-1.9c0-0.9,0.1-1.8,0.1-2.4c0-1.3-0.2-2.2-0.6-2.8c-0.4-0.6-1-0.9-1.9-0.9c-0.4,0-0.9,0.1-1.4,0.3
			C100,272.8,99.5,273.1,99,273.4z"/>
		<path class="st0" d="M120.3,281.7c-1.6,0-3-0.5-4-1.5c-1-1-1.5-2.3-1.5-3.9c0-1.7,0.5-3,1.6-4.1c1.1-1,2.5-1.6,4.3-1.6
			c1.6,0,2.9,0.5,3.9,1.5c1,1,1.5,2.2,1.5,3.8c0,0.6-0.1,1.2-0.3,1.8c-0.2,0.6-0.5,1.1-0.8,1.5c-0.6,0.8-1.3,1.4-2.1,1.8
			C122.1,281.5,121.3,281.7,120.3,281.7z M120.4,280.2c1.1,0,2.1-0.4,2.8-1.1c0.7-0.8,1.1-1.7,1.1-2.9c0-1.2-0.4-2.1-1.1-2.8
			c-0.7-0.7-1.6-1.1-2.8-1.1c-1.2,0-2.1,0.4-2.8,1.1c-0.7,0.8-1.1,1.8-1.1,3c0,1.1,0.4,2,1.1,2.8
			C118.4,279.9,119.3,280.2,120.4,280.2z"/>
		<path class="st0" d="M130.4,273.4c0,0.8,0,1.6-0.1,2.5c0,0.9,0,1.4,0,1.5c0,0.9,0,1.7,0.1,2.2c0.1,0.6,0.2,1,0.4,1.4
			c-0.3,0.2-0.6,0.3-0.8,0.3c-0.2,0.1-0.5,0.1-0.7,0.1c-0.3,0-0.5-0.1-0.7-0.3c-0.1-0.2-0.2-0.6-0.2-1.1c0-0.1,0-0.8,0.1-1.9
			c0.1-1.2,0.1-2.3,0.1-3.3c0-1,0-1.8-0.1-2.3c-0.1-0.5-0.2-1-0.4-1.5c0.2,0,0.3-0.1,0.5-0.1c0.2,0,0.3,0,0.5,0
			c0.4,0,0.7,0.1,0.9,0.3c0.2,0.2,0.3,0.5,0.4,0.9c0.5-0.4,1.1-0.7,1.7-0.9c0.6-0.2,1.2-0.3,1.7-0.3c0.7,0,1.3,0.2,1.9,0.5
			c0.6,0.3,1,0.7,1.3,1.3c0.2,0.4,0.3,0.8,0.4,1.3c0.1,0.5,0.1,1.2,0.1,2.3c0,0.1,0,0.4,0,0.7c0,0.4,0,0.7,0,1c0,0.7,0,1.3,0.1,1.9
			c0.1,0.5,0.2,0.9,0.4,1.2c-0.3,0.2-0.6,0.3-0.9,0.4c-0.2,0.1-0.5,0.1-0.7,0.1c-0.3,0-0.6-0.1-0.7-0.3c-0.1-0.2-0.2-0.5-0.2-1
			c0-0.3,0-0.9,0.1-1.9c0-0.9,0.1-1.8,0.1-2.4c0-1.3-0.2-2.2-0.6-2.8c-0.4-0.6-1-0.9-1.9-0.9c-0.4,0-0.9,0.1-1.4,0.3
			C131.4,272.8,130.9,273.1,130.4,273.4z"/>
		<path class="st0" d="M147.8,279.3c0.2,0.2,0.3,0.4,0.3,0.5c0.1,0.2,0.1,0.3,0.1,0.5c0,0.4-0.3,0.7-0.8,0.9
			c-0.6,0.2-1.3,0.4-2.2,0.4c-1.7,0-3-0.5-3.9-1.4c-0.9-0.9-1.4-2.2-1.4-3.8c0-1.6,0.5-3,1.4-4c1-1,2.2-1.6,3.7-1.6
			c1.2,0,2.1,0.3,2.8,1c0.7,0.7,1.1,1.5,1.1,2.5c0,0.8-0.3,1.4-0.9,1.7c-0.6,0.3-1.7,0.5-3.1,0.5c-0.6,0-1.1,0-1.7-0.1
			c-0.6,0-1.1-0.1-1.6-0.2v0.1c0,1.1,0.3,2,1,2.6c0.6,0.6,1.5,1,2.6,1c0.5,0,1-0.1,1.4-0.2C147,279.7,147.4,279.5,147.8,279.3z
			 M141.7,275.1c0.5,0.1,1,0.1,1.5,0.2c0.6,0,1.2,0.1,1.8,0.1c0.9,0,1.5-0.1,1.8-0.2c0.3-0.2,0.4-0.5,0.4-0.9c0-0.6-0.2-1.1-0.7-1.5
			c-0.4-0.4-1-0.6-1.8-0.6c-0.8,0-1.5,0.3-2,0.8C142.1,273.5,141.8,274.2,141.7,275.1z"/>
		<path class="st0" d="M164.7,279.3c0.2,0.2,0.3,0.4,0.3,0.5c0.1,0.2,0.1,0.3,0.1,0.5c0,0.4-0.3,0.7-0.8,0.9
			c-0.6,0.2-1.3,0.4-2.2,0.4c-1.7,0-3-0.5-3.9-1.4c-0.9-0.9-1.4-2.2-1.4-3.8c0-1.6,0.5-3,1.4-4c1-1,2.2-1.6,3.7-1.6
			c1.2,0,2.1,0.3,2.8,1c0.7,0.7,1.1,1.5,1.1,2.5c0,0.8-0.3,1.4-0.9,1.7c-0.6,0.3-1.7,0.5-3.1,0.5c-0.6,0-1.1,0-1.7-0.1
			c-0.5,0-1.1-0.1-1.6-0.2v0.1c0,1.1,0.3,2,1,2.6c0.6,0.6,1.5,1,2.6,1c0.5,0,1-0.1,1.4-0.2C163.9,279.7,164.3,279.5,164.7,279.3z
			 M158.6,275.1c0.5,0.1,1,0.1,1.5,0.2c0.6,0,1.2,0.1,1.8,0.1c0.9,0,1.5-0.1,1.8-0.2c0.3-0.2,0.4-0.5,0.4-0.9c0-0.6-0.2-1.1-0.7-1.5
			c-0.4-0.4-1-0.6-1.8-0.6c-0.8,0-1.5,0.3-2,0.8C159,273.5,158.7,274.2,158.6,275.1z"/>
		<path class="st0" d="M170.6,276.2c-1.1-1.4-1.9-2.5-2.5-3.1c-0.6-0.6-1-1-1.3-1c0.1-0.4,0.3-0.7,0.5-0.9c0.2-0.2,0.5-0.3,0.7-0.3
			c0.4,0,1,0.6,1.9,1.9c0.7,1,1.3,1.8,1.7,2.4c1-1.1,1.7-1.9,2-2.4c0.4-0.6,0.6-1,0.6-1.4c0,0,0-0.1,0-0.1c0,0,0-0.1,0-0.1
			c0.3-0.1,0.5-0.2,0.6-0.2c0.1,0,0.3,0,0.4,0c0.3,0,0.5,0.1,0.7,0.2c0.2,0.1,0.2,0.3,0.2,0.6c0,0.5-1.2,2-3.6,4.4l-0.2,0.2
			c0.2,0.3,0.5,0.6,0.8,1.1c1.5,2,2.5,3,2.8,3h0c-0.1,0.4-0.3,0.7-0.5,0.9c-0.2,0.2-0.4,0.3-0.7,0.3c-0.4,0-1.1-0.7-2-2
			c-0.6-0.9-1.1-1.6-1.5-2.2c-1,1.1-1.7,1.8-2.1,2.4c-0.4,0.5-0.6,1-0.6,1.3c0,0.1,0,0.2,0,0.3c0,0,0,0,0,0.1
			c-0.2,0.1-0.4,0.1-0.6,0.2c-0.2,0-0.3,0-0.4,0c-0.3,0-0.6-0.1-0.7-0.2c-0.1-0.1-0.2-0.3-0.2-0.6c0-0.6,1.1-2,3.2-4.1L170.6,276.2z
			"/>
		<path class="st0" d="M180.2,280.6c0,0.1,0,0.3,0,0.5c0,0.2,0,0.4,0,0.8c0,0.9,0,1.7,0.1,2.3c0.1,0.6,0.2,1.1,0.4,1.5
			c-0.3,0.2-0.6,0.3-0.8,0.3c-0.2,0.1-0.5,0.1-0.7,0.1c-0.3,0-0.5-0.1-0.7-0.3c-0.1-0.2-0.2-0.5-0.2-1c0-0.5,0-1.7,0.1-3.6
			c0.1-1.9,0.1-3.6,0.1-5.1c0-1.5,0-2.6-0.1-3.3c-0.1-0.7-0.2-1.3-0.4-1.7c0.2,0,0.3-0.1,0.5-0.1c0.1,0,0.3,0,0.5,0
			c0.4,0,0.6,0.1,0.8,0.3c0.2,0.2,0.3,0.5,0.3,0.9c0.5-0.4,1.1-0.7,1.7-0.9c0.6-0.2,1.2-0.3,1.7-0.3c1.4,0,2.6,0.5,3.6,1.4
			c1,0.9,1.4,2.1,1.4,3.5c0,1.5-0.5,2.8-1.6,3.9c-1.1,1.1-2.4,1.6-3.9,1.6c-0.6,0-1.1-0.1-1.6-0.2
			C181.1,281.1,180.7,280.9,180.2,280.6z M180.3,279.1c0.4,0.3,0.9,0.5,1.4,0.7c0.5,0.2,0.9,0.2,1.4,0.2c1.1,0,2-0.4,2.7-1.1
			c0.7-0.7,1.1-1.6,1.1-2.7c0-1.1-0.3-2-1-2.7c-0.6-0.7-1.5-1-2.6-1c-0.5,0-0.9,0.1-1.4,0.3c-0.5,0.2-1,0.4-1.5,0.8
			c0,0.7,0,1.5,0,2.4C180.3,276.9,180.3,277.9,180.3,279.1z"/>
		<path class="st0" d="M198.2,279.3c0.2,0.2,0.3,0.4,0.3,0.5c0.1,0.2,0.1,0.3,0.1,0.5c0,0.4-0.3,0.7-0.8,0.9
			c-0.6,0.2-1.3,0.4-2.2,0.4c-1.7,0-3-0.5-3.9-1.4c-0.9-0.9-1.4-2.2-1.4-3.8c0-1.6,0.5-3,1.4-4c1-1,2.2-1.6,3.7-1.6
			c1.2,0,2.1,0.3,2.8,1c0.7,0.7,1.1,1.5,1.1,2.5c0,0.8-0.3,1.4-0.9,1.7c-0.6,0.3-1.7,0.5-3.1,0.5c-0.6,0-1.1,0-1.7-0.1
			c-0.5,0-1.1-0.1-1.6-0.2v0.1c0,1.1,0.3,2,1,2.6c0.6,0.6,1.5,1,2.6,1c0.5,0,1-0.1,1.4-0.2C197.4,279.7,197.8,279.5,198.2,279.3z
			 M192.1,275.1c0.5,0.1,1,0.1,1.5,0.2c0.6,0,1.2,0.1,1.8,0.1c0.9,0,1.5-0.1,1.8-0.2c0.3-0.2,0.4-0.5,0.4-0.9c0-0.6-0.2-1.1-0.7-1.5
			c-0.4-0.4-1-0.6-1.8-0.6c-0.8,0-1.5,0.3-2,0.8C192.6,273.5,192.2,274.2,192.1,275.1z"/>
		<path class="st0" d="M203.2,273.2c0.5-0.7,1-1.3,1.5-1.6c0.5-0.4,0.9-0.5,1.4-0.5c0.4,0,0.7,0.1,1,0.4c0.3,0.2,0.4,0.6,0.4,0.9
			c0,0.2-0.1,0.5-0.2,0.7c-0.2,0.2-0.4,0.5-0.7,0.7c-0.1-0.3-0.3-0.5-0.4-0.7c-0.2-0.1-0.4-0.2-0.6-0.2c-0.3,0-0.7,0.2-1.1,0.5
			c-0.4,0.3-0.8,0.8-1.1,1.5c0,0.3-0.1,0.6-0.1,1c0,0.3,0,0.6,0,1c0,1.1,0.1,1.9,0.2,2.6c0.1,0.7,0.3,1.3,0.5,1.7
			c-0.3,0.1-0.6,0.3-0.8,0.3c-0.3,0.1-0.5,0.1-0.8,0.1c-0.3,0-0.6-0.1-0.7-0.3c-0.1-0.2-0.2-0.5-0.2-1c0-0.2,0-0.9,0.1-2.2
			c0.1-1.3,0.1-2.4,0.1-3.5c0-0.9,0-1.6-0.1-2c-0.1-0.5-0.2-0.9-0.3-1.3c0.1,0,0.3-0.1,0.4-0.1c0.1,0,0.3,0,0.4,0
			c0.4,0,0.7,0.1,0.9,0.3c0.2,0.2,0.3,0.5,0.3,0.9c0,0.1,0,0.2,0,0.4C203.3,272.7,203.3,272.9,203.2,273.2z"/>
		<path class="st0" d="M211.9,281c-0.3,0.2-0.6,0.3-0.8,0.4c-0.3,0.1-0.5,0.1-0.8,0.1c-0.3,0-0.6-0.1-0.7-0.3
			c-0.1-0.2-0.2-0.6-0.2-1.1c0-0.3,0-1,0.1-2.2c0.1-1.1,0.1-2.1,0.1-2.9c0-0.9,0-1.6-0.1-2.1c-0.1-0.5-0.2-1-0.4-1.4
			c0.3-0.2,0.5-0.3,0.8-0.4c0.3-0.1,0.5-0.1,0.8-0.1c0.3,0,0.5,0.1,0.7,0.2c0.1,0.2,0.2,0.5,0.2,0.9c0,0.1,0,0.7-0.1,1.8
			c-0.1,1.1-0.1,2.2-0.1,3.2c0,0.9,0,1.7,0.1,2.3C211.5,280.1,211.7,280.6,211.9,281z M211.8,267.8c0,0.4-0.1,0.7-0.4,1
			c-0.3,0.3-0.6,0.4-1.1,0.4c-0.4,0-0.7-0.1-0.9-0.3c-0.2-0.2-0.3-0.5-0.3-0.9c0-0.4,0.1-0.7,0.4-1c0.3-0.3,0.6-0.4,1-0.4
			c0.4,0,0.7,0.1,0.9,0.3C211.7,267.2,211.8,267.5,211.8,267.8z"/>
		<path class="st0" d="M222,279.3c0.2,0.2,0.3,0.4,0.3,0.5c0.1,0.2,0.1,0.3,0.1,0.5c0,0.4-0.3,0.7-0.8,0.9c-0.6,0.2-1.3,0.4-2.2,0.4
			c-1.7,0-3-0.5-3.9-1.4c-0.9-0.9-1.4-2.2-1.4-3.8c0-1.6,0.5-3,1.4-4c1-1,2.2-1.6,3.7-1.6c1.2,0,2.1,0.3,2.8,1
			c0.7,0.7,1.1,1.5,1.1,2.5c0,0.8-0.3,1.4-0.9,1.7c-0.6,0.3-1.7,0.5-3.1,0.5c-0.6,0-1.1,0-1.7-0.1c-0.5,0-1.1-0.1-1.6-0.2v0.1
			c0,1.1,0.3,2,1,2.6c0.6,0.6,1.5,1,2.6,1c0.5,0,1-0.1,1.4-0.2C221.2,279.7,221.6,279.5,222,279.3z M215.8,275.1
			c0.5,0.1,1,0.1,1.5,0.2c0.6,0,1.2,0.1,1.8,0.1c0.9,0,1.5-0.1,1.8-0.2c0.3-0.2,0.4-0.5,0.4-0.9c0-0.6-0.2-1.1-0.7-1.5
			c-0.4-0.4-1-0.6-1.8-0.6c-0.8,0-1.5,0.3-2,0.8C216.3,273.5,216,274.2,215.8,275.1z"/>
		<path class="st0" d="M227.2,273.4c0,0.8,0,1.6-0.1,2.5c0,0.9,0,1.4,0,1.5c0,0.9,0,1.7,0.1,2.2c0.1,0.6,0.2,1,0.4,1.4
			c-0.3,0.2-0.6,0.3-0.8,0.3c-0.2,0.1-0.5,0.1-0.7,0.1c-0.3,0-0.5-0.1-0.7-0.3c-0.1-0.2-0.2-0.6-0.2-1.1c0-0.1,0-0.8,0.1-1.9
			c0.1-1.2,0.1-2.3,0.1-3.3c0-1,0-1.8-0.1-2.3c-0.1-0.5-0.2-1-0.4-1.5c0.2,0,0.3-0.1,0.5-0.1c0.2,0,0.3,0,0.5,0
			c0.4,0,0.7,0.1,0.9,0.3c0.2,0.2,0.3,0.5,0.4,0.9c0.5-0.4,1.1-0.7,1.7-0.9c0.6-0.2,1.2-0.3,1.7-0.3c0.7,0,1.3,0.2,1.9,0.5
			c0.6,0.3,1,0.7,1.3,1.3c0.2,0.4,0.3,0.8,0.4,1.3c0.1,0.5,0.1,1.2,0.1,2.3c0,0.1,0,0.4,0,0.7c0,0.4,0,0.7,0,1c0,0.7,0,1.3,0.1,1.9
			c0.1,0.5,0.2,0.9,0.4,1.2c-0.3,0.2-0.6,0.3-0.9,0.4c-0.2,0.1-0.5,0.1-0.7,0.1c-0.3,0-0.6-0.1-0.7-0.3c-0.1-0.2-0.2-0.5-0.2-1
			c0-0.3,0-0.9,0.1-1.9c0-0.9,0.1-1.8,0.1-2.4c0-1.3-0.2-2.2-0.6-2.8c-0.4-0.6-1-0.9-1.9-0.9c-0.4,0-0.9,0.1-1.4,0.3
			C228.2,272.8,227.7,273.1,227.2,273.4z"/>
		<path class="st0" d="M243.9,273c-0.3-0.2-0.5-0.3-0.8-0.4c-0.3-0.1-0.5-0.1-0.9-0.1c-1.1,0-2,0.4-2.7,1.1
			c-0.7,0.8-1.1,1.7-1.1,2.9c0,1.1,0.3,1.9,0.9,2.5c0.6,0.6,1.5,0.9,2.5,0.9c0.5,0,0.9-0.1,1.3-0.2c0.4-0.1,0.7-0.3,1.1-0.6
			c0.1,0.2,0.2,0.3,0.3,0.5c0.1,0.2,0.1,0.3,0.1,0.5c0,0.4-0.3,0.8-0.8,1.1c-0.5,0.3-1.2,0.4-2.1,0.4c-1.5,0-2.8-0.4-3.7-1.3
			c-1-0.9-1.4-2-1.4-3.4c0-1.7,0.6-3.1,1.7-4.3c1.2-1.2,2.6-1.7,4.2-1.7c0.6,0,1.1,0.1,1.4,0.3c0.3,0.2,0.4,0.4,0.4,0.8
			c0,0.2,0,0.4-0.1,0.5C244.2,272.6,244.1,272.8,243.9,273z"/>
		<path class="st0" d="M253.8,279.3c0.2,0.2,0.3,0.4,0.3,0.5c0.1,0.2,0.1,0.3,0.1,0.5c0,0.4-0.3,0.7-0.8,0.9
			c-0.6,0.2-1.3,0.4-2.2,0.4c-1.7,0-3-0.5-3.9-1.4c-0.9-0.9-1.4-2.2-1.4-3.8c0-1.6,0.5-3,1.4-4c1-1,2.2-1.6,3.7-1.6
			c1.2,0,2.1,0.3,2.8,1c0.7,0.7,1.1,1.5,1.1,2.5c0,0.8-0.3,1.4-0.9,1.7c-0.6,0.3-1.7,0.5-3.1,0.5c-0.6,0-1.1,0-1.7-0.1
			c-0.5,0-1.1-0.1-1.6-0.2v0.1c0,1.1,0.3,2,1,2.6c0.6,0.6,1.5,1,2.6,1c0.5,0,1-0.1,1.4-0.2C253,279.7,253.4,279.5,253.8,279.3z
			 M247.6,275.1c0.5,0.1,1,0.1,1.5,0.2c0.6,0,1.2,0.1,1.8,0.1c0.9,0,1.5-0.1,1.8-0.2c0.3-0.2,0.4-0.5,0.4-0.9c0-0.6-0.2-1.1-0.7-1.5
			c-0.4-0.4-1-0.6-1.8-0.6c-0.8,0-1.5,0.3-2,0.8C248.1,273.5,247.8,274.2,247.6,275.1z"/>
	</g>
</g>
<g>
	<path class="st0" d="M119.8,54l12.4-4.1l-0.4-1.1c-0.6-1.8-1.2-3.3-1.7-4.3c-0.5-1-1-1.8-1.4-2.2c0.4-0.4,0.8-0.8,1.2-1
		c0.4-0.3,0.7-0.4,1-0.5c0.5-0.2,0.9-0.1,1.2,0.1c0.3,0.2,0.6,0.7,0.8,1.4c0.1,0.2,0.4,1.4,1,3.4c0.6,2,1.2,3.9,1.7,5.7
		c0.9,2.7,1.6,4.6,2.2,5.9c0.6,1.3,1.1,2.2,1.7,2.7c-0.4,0.4-0.7,0.7-1.1,1c-0.4,0.3-0.7,0.4-1.1,0.6c-0.5,0.2-0.9,0.1-1.2-0.1
		c-0.3-0.2-0.5-0.7-0.8-1.4c0,0-0.3-1-0.8-2.8c-0.5-1.8-1.1-3.6-1.6-5.3L120.4,56l0.5,1.4c0.7,2.1,1.3,3.8,1.9,5
		c0.5,1.2,1.1,2,1.6,2.5c-0.4,0.4-0.7,0.7-1.1,1c-0.4,0.3-0.7,0.4-1,0.5c-0.5,0.2-0.9,0.2-1.2-0.1c-0.3-0.2-0.6-0.7-0.8-1.5
		c-0.1-0.4-0.5-1.7-1.1-3.9c-0.6-2.2-1.2-4.2-1.8-6c-0.7-2.3-1.4-4-1.9-5.2c-0.6-1.2-1.1-2-1.6-2.5c0.4-0.4,0.8-0.7,1.1-1
		c0.4-0.3,0.7-0.4,1-0.5c0.5-0.2,0.9-0.1,1.2,0.1c0.3,0.2,0.6,0.7,0.8,1.4c0,0.1,0.3,1,0.7,2.5C118.9,51.1,119.4,52.6,119.8,54z"/>
	<path class="st0" d="M158.7,40.9c-0.5-0.2-1.2-0.4-2-0.5c-0.8-0.1-1.7-0.1-2.9-0.1c-0.5,0-1.4,0.1-2.7,0.1c-0.3,0-0.6,0-0.7,0
		l0.1,6.7c0.3,0,0.6,0,0.9,0c0.3,0,0.8,0,1.5-0.1c1.3,0,2.4-0.1,3.3-0.2c0.9-0.1,1.5-0.2,1.9-0.3c0.1,0.3,0.2,0.5,0.3,0.7
		c0.1,0.2,0.1,0.4,0.1,0.6c0,0.5-0.1,0.8-0.4,1.1c-0.3,0.2-0.8,0.3-1.5,0.4c-0.2,0-0.8,0-1.7,0c-0.9,0-1.7,0-2.4,0.1
		c-0.5,0-0.9,0-1.2,0c-0.3,0-0.5,0-0.8,0c0,1.1,0.1,2.3,0.1,3.6c0,1.3,0,2.7,0,4.2c0.1,0,0.3,0,0.5,0c1.3,0,2.3,0,2.8-0.1
		c1.1,0,2-0.1,2.7-0.3c0.8-0.2,1.4-0.4,2-0.7c0.2,0.4,0.4,0.7,0.5,1c0.1,0.3,0.2,0.5,0.2,0.8c0,0.5-0.1,0.9-0.5,1.1
		c-0.3,0.2-1,0.4-2,0.4c-0.5,0-1.2,0-2.2,0c-1,0-1.7,0-2.2,0c-1.1,0-2.1,0.1-3.2,0.2c-0.2,0-0.4,0-0.4,0c-0.4,0-0.6-0.1-0.8-0.2
		c-0.2-0.2-0.2-0.4-0.2-0.8c0-0.2,0-0.8,0-1.6c0-3.1,0-6-0.1-8.8c-0.1-2.7-0.2-4.9-0.4-6.5c-0.2-1.6-0.3-2.8-0.6-3.6l1.9-0.1
		c2.4-0.1,4.8-0.2,7.2-0.5c0.5,0,0.9-0.1,1-0.1c0.8,0,1.4,0,1.7,0.2c0.3,0.2,0.5,0.5,0.5,0.9c0,0.3,0,0.6-0.1,0.9
		C159.1,40.1,158.9,40.5,158.7,40.9z"/>
	<path class="st0" d="M171.1,58.5c0.4,0.1,0.8,0.2,1.2,0.3c0.4,0.1,0.8,0.2,1.2,0.3c1.4,0.3,2.6,0.4,3.4,0.5c0.8,0,1.6,0,2.2-0.2
		c0.1,0.4,0.2,0.7,0.2,1.1c0,0.3,0,0.7,0,1c-0.1,0.5-0.3,0.8-0.7,0.9c-0.4,0.1-1,0.1-2-0.1c-0.3-0.1-1-0.2-1.9-0.4
		c-0.9-0.2-1.7-0.4-2.3-0.5c-0.8-0.2-1.7-0.3-2.5-0.4c-0.9-0.1-1.3-0.2-1.3-0.2c-0.3-0.1-0.6-0.2-0.7-0.4c-0.1-0.2-0.1-0.5,0-0.9
		c0-0.2,0.2-0.7,0.4-1.5c0.8-3.1,1.4-6.1,2-8.9c0.5-2.6,0.8-4.7,1-6.1c0.1-1.4,0.1-2.5-0.1-3.2c0.5-0.2,1-0.3,1.4-0.3
		c0.4,0,0.8,0,1.2,0c0.6,0.1,0.9,0.3,1.1,0.6c0.1,0.3,0.1,0.9,0,1.8c0,0.3-0.2,0.9-0.5,2c-1,4.2-1.9,8.2-2.6,12L171.1,58.5z"/>
	<path class="st0" d="M189.1,65.6c-0.5,0-1,0-1.5,0c-0.4,0-0.8-0.1-1.1-0.3c-0.5-0.2-0.8-0.5-0.8-0.9c-0.1-0.4,0.1-0.9,0.4-1.7
		c0.2-0.5,0.8-1.7,1.8-3.7c1-2,1.8-3.7,2.5-5.2c1.1-2.5,1.9-4.5,2.4-6c0.5-1.5,0.7-2.5,0.6-3.1L194,45c0.6,0.3,1.5,0.6,2.7,1
		c1.2,0.4,2.1,0.8,2.7,1.1c2.1,0.9,3.5,2.2,4.3,3.7c0.7,1.5,0.7,3.2-0.1,5c-0.9,2.1-2.4,3.4-4.3,4.1c-2,0.7-4.1,0.5-6.3-0.5
		c-0.3-0.2-0.7-0.3-0.9-0.4s-0.5-0.3-0.8-0.4c-0.8,1.8-1.3,3.2-1.7,4.4C189.2,63.9,189,64.9,189.1,65.6z M192.1,56.4
		c0.2,0.2,0.5,0.3,0.8,0.4c0.3,0.1,0.6,0.3,0.9,0.4c1.5,0.7,2.9,0.8,4.1,0.4c1.2-0.4,2.1-1.3,2.8-2.8c0.6-1.3,0.6-2.4,0.2-3.4
		c-0.5-1-1.4-1.8-2.9-2.5c-0.3-0.1-0.6-0.2-0.9-0.3c-0.3-0.1-0.7-0.2-1.1-0.3c-0.6,1.2-1.2,2.4-1.8,3.6c-0.6,1.2-1.1,2.3-1.6,3.4
		L192.1,56.4z"/>
	<path class="st0" d="M240.7,125.2c0,0.4,0.1,0.8,0.2,1.3c0.1,0.4,0.1,0.8,0.2,1.2c0.3,1.4,0.6,2.5,0.9,3.3c0.3,0.8,0.6,1.4,1,1.9
		c-0.3,0.3-0.6,0.5-0.9,0.6c-0.3,0.2-0.6,0.3-0.9,0.3c-0.5,0.1-0.8,0-1.1-0.3c-0.3-0.3-0.5-0.9-0.7-1.9c-0.1-0.3-0.2-1-0.3-1.9
		c-0.2-0.9-0.3-1.7-0.4-2.3c-0.2-0.8-0.4-1.7-0.6-2.5c-0.2-0.8-0.3-1.3-0.3-1.3c-0.1-0.3,0-0.6,0.1-0.8c0.1-0.2,0.4-0.3,0.8-0.4
		c0.2,0,0.7-0.1,1.6-0.2c3.2-0.5,6.1-1,9-1.6c2.6-0.5,4.7-1,6-1.5c1.4-0.4,2.3-0.9,2.9-1.3c0.3,0.4,0.6,0.8,0.8,1.2
		c0.2,0.4,0.4,0.8,0.4,1.2c0.1,0.6,0,1-0.2,1.2c-0.2,0.3-0.8,0.5-1.7,0.7c-0.3,0.1-0.9,0.2-2.1,0.3c-4.3,0.7-8.3,1.4-12,2.2
		L240.7,125.2z"/>
	<path class="st0" d="M258.7,152.5c0.3-0.5,0.4-1.2,0.6-1.9c0.1-0.8,0.2-1.7,0.2-2.9c0-0.5,0-1.4,0-2.7c0-0.3,0-0.6,0-0.7l-6.7-0.3
		c0,0.3,0,0.6-0.1,0.9c0,0.3,0,0.8,0,1.5c0,1.3,0,2.4,0,3.3c0,0.9,0.1,1.5,0.2,1.9c-0.3,0.1-0.5,0.2-0.8,0.3
		c-0.2,0.1-0.4,0.1-0.6,0.1c-0.5,0-0.8-0.2-1-0.5c-0.2-0.3-0.3-0.8-0.3-1.5c0-0.2,0-0.8,0.1-1.7c0-0.9,0.1-1.7,0.1-2.4
		c0-0.5,0-0.9,0-1.2c0-0.3,0-0.5,0-0.8c-1.1,0-2.3-0.1-3.6-0.1c-1.3-0.1-2.7-0.1-4.2-0.2c0,0.1,0,0.3,0,0.5
		c-0.1,1.3-0.1,2.3-0.1,2.8c0,1.1,0,2,0.1,2.8c0.1,0.8,0.3,1.4,0.6,2c-0.4,0.2-0.7,0.4-1,0.5c-0.3,0.1-0.6,0.1-0.8,0.1
		c-0.5,0-0.9-0.2-1.1-0.6c-0.2-0.4-0.3-1-0.3-2c0-0.5,0-1.2,0.1-2.2c0.1-1,0.1-1.7,0.1-2.2c0-1.1,0-2.1,0-3.2c0-0.2,0-0.4,0-0.4
		c0-0.4,0.1-0.6,0.3-0.7c0.2-0.1,0.4-0.2,0.9-0.2c0.2,0,0.7,0,1.6,0.1c3.1,0.2,6,0.4,8.8,0.5c2.7,0.1,4.9,0.1,6.5,0
		c1.6-0.1,2.9-0.2,3.7-0.4l0,1.9c-0.1,2.4,0,4.8,0,7.3c0,0.5,0,0.9,0,1c0,0.8-0.1,1.4-0.3,1.7c-0.2,0.3-0.5,0.4-1,0.4
		c-0.3,0-0.6-0.1-0.9-0.2C259.4,152.9,259.1,152.8,258.7,152.5z"/>
	<path class="st0" d="M242.5,172.8l2.3-7.8c-1.5-1.3-2.6-2.2-3.5-2.8c-0.9-0.6-1.6-1-2.3-1.2l-0.2-0.1c0-0.2,0.1-0.4,0.1-0.5
		c0-0.1,0.1-0.2,0.1-0.3c0.2-0.6,0.5-1.1,0.8-1.3c0.4-0.3,0.8-0.3,1.3-0.2c0.5,0.1,2.3,1.7,5.6,4.7c3.2,3,6.2,5.6,9.1,8
		c0.3-0.1,0.5-0.2,0.8-0.3c0.3-0.1,0.5-0.2,0.8-0.4c0.3,0.5,0.6,0.9,0.7,1.3c0.1,0.4,0.1,0.7,0,1c-0.1,0.4-0.5,0.7-1.2,1
		c-0.7,0.2-1.7,0.4-3.1,0.6c-1.2,0.1-3,0.3-5.2,0.5c-7.5,0.7-12,1.4-13.3,2.2c-0.3-0.5-0.5-0.9-0.6-1.3c-0.1-0.4-0.1-0.7,0-1
		c0.3-1,2.3-1.6,6-1.9C241.4,172.9,242,172.8,242.5,172.8z M252.9,171.8l-1.4-1.2c-2.3-1.9-4-3.3-5-4.1l-1.8,6.1
		c1.5-0.1,2.9-0.2,4.3-0.4C250.3,172.1,251.6,172,252.9,171.8z"/>
	<path class="st0" d="M234.1,194.7c-0.6,0.5-1.7,0.9-3.3,1.1c-0.4,0.1-0.8,0.1-1,0.2c-1.7,0.3-3,0.6-4,1c-1,0.3-1.8,0.7-2.2,1.1
		c-0.5-0.7-0.8-1.2-0.9-1.7c-0.1-0.5,0-0.9,0.2-1.2c0.2-0.3,0.6-0.6,1.1-0.8c0.5-0.2,1.2-0.4,2.1-0.5c0.7-0.1,1.6-0.2,2.8-0.4
		c3.7-0.5,5.9-1.3,6.7-2.5c0.1-0.1,0.2-0.3,0.3-0.5c0.1-0.2,0.2-0.5,0.4-0.8c-1.9-1.2-3.4-1.9-4.3-2.4c-1-0.4-1.8-0.7-2.4-0.7
		c0-0.5,0.1-1,0.2-1.4c0.1-0.4,0.3-0.8,0.4-1.1c0.3-0.5,0.6-0.7,1-0.7c0.3,0,0.9,0.2,1.6,0.7c0.3,0.2,1.3,0.9,3.3,2.2
		c1.9,1.3,3.8,2.6,5.5,3.7c2.2,1.4,3.9,2.4,5.1,3c1.2,0.6,2.1,0.9,2.8,1c-0.7,1.1-1.3,2.3-2,3.5c-0.7,1.2-1.1,1.9-1.2,2.1
		c-1.2,1.9-2.6,3.1-4.2,3.7c-1.6,0.5-3.2,0.3-4.7-0.7c-1.4-0.9-2.3-2-2.9-3.3C233.9,197.9,233.8,196.4,234.1,194.7z M245.6,195.9
		c-1.4-1-2.7-1.9-4-2.7c-1.3-0.9-2.5-1.7-3.7-2.4c0,0.1-0.1,0.2-0.2,0.3c-0.1,0.1-0.2,0.2-0.2,0.3c-1.1,1.7-1.6,3.3-1.4,4.8
		c0.2,1.5,1,2.7,2.5,3.6c1.1,0.7,2.2,0.9,3.2,0.5c1.1-0.3,2-1.2,2.8-2.5c0.2-0.3,0.4-0.6,0.5-0.9
		C245.3,196.6,245.4,196.3,245.6,195.9z"/>
	<path class="st0" d="M204.1,213c2.6,0.2,6.3,0.7,11.3,1.5c4.9,0.8,8.6,1.3,10.9,1.6c-2.4-2.9-5.1-5.9-7.9-9
		c-0.7-0.8-1.2-1.3-1.4-1.5c-0.6-0.8-1-1.3-1-1.7c0-0.4,0.2-0.7,0.6-1.1c0.3-0.2,0.6-0.4,1-0.6c0.4-0.2,0.8-0.3,1.3-0.3
		c0.2,1.1,0.7,2.3,1.7,3.8c0.9,1.5,2.8,3.9,5.7,7.2c1.3,1.6,2.4,2.6,3.1,3.1c0.8,0.5,1.5,0.7,2.2,0.5c0,0.7-0.1,1.2-0.2,1.6
		c-0.1,0.4-0.3,0.7-0.6,0.9c-0.2,0.2-0.6,0.3-0.9,0.4c-0.4,0-0.9,0-1.6-0.1c-0.1,0-0.4-0.1-0.9-0.1c-5.9-1-12.4-2-19.5-3
		c0.9,1.2,1.8,2.2,2.5,3.1c0.7,0.9,1.4,1.6,1.9,2.3c1.7,2,3.1,3.5,4.2,4.5c1.1,0.9,2.1,1.6,3,1.9c-0.2,0.5-0.4,0.9-0.6,1.2
		c-0.2,0.3-0.4,0.6-0.7,0.8c-0.4,0.4-0.8,0.5-1.2,0.4c-0.4-0.1-0.9-0.6-1.7-1.5c-0.4-0.5-1.4-1.8-3-3.9c-1.6-2.1-3-3.8-4.3-5.3
		c-0.8-1-1.6-1.9-2.4-2.7c-0.8-0.8-1.5-1.5-2.2-2.2L204.1,213z"/>
	<path class="st0" d="M148.3,249.7c-1.4-0.2-2.7-0.4-4.1-0.6c-1.4-0.2-2.1-0.3-2.1-0.3c-3.9-0.6-6.8-2.1-8.8-4.3
		c-2-2.2-2.8-4.9-2.3-8c0.3-1.6,0.9-3.2,1.8-4.5c0.9-1.4,2.1-2.5,3.6-3.4c1.3-0.8,2.9-1.4,4.5-1.6c1.7-0.3,3.5-0.2,5.4,0.1
		c2,0.3,3.3,0.7,3.9,1.1c0.6,0.4,0.8,1.1,0.6,2c0,0.1-0.2,1.2-0.7,3.5c-0.5,2.3-0.9,4.5-1.2,6.7c-0.4,2.4-0.6,4.3-0.7,5.8
		C148,247.8,148.1,248.9,148.3,249.7z M144.9,246.6c0.4-2.1,0.8-4,1.1-5.6c0.3-1.7,0.6-3.1,0.8-4.4c0.2-1.1,0.3-2.2,0.5-3.2
		c0.1-1,0.3-2.1,0.4-3.1c-0.4-0.2-0.9-0.4-1.4-0.5c-0.5-0.1-0.9-0.2-1.4-0.3c-2.8-0.4-5.1,0-7.1,1.2c-2,1.3-3.1,3.2-3.5,5.7
		c-0.4,2.5,0.1,4.7,1.5,6.5c1.4,1.8,3.5,3,6.2,3.4c0.5,0.1,1.1,0.2,1.6,0.2C144,246.6,144.5,246.6,144.9,246.6z"/>
	<path class="st0" d="M121.5,221.2c0.5-0.1,1-0.1,1.5,0c0.4,0,0.9,0.1,1.2,0.3c0.5,0.2,0.8,0.5,0.8,0.8c0.1,0.3-0.1,0.9-0.4,1.7
		c-0.2,0.4-0.7,1.6-1.7,3.7c-1,2.1-1.8,4-2.5,5.8c-0.9,2.2-1.6,4-1.9,5.3c-0.4,1.3-0.5,2.2-0.4,2.9c-0.6,0.1-1.1,0.1-1.5,0
		c-0.4,0-0.8-0.1-1.2-0.3c-0.5-0.2-0.8-0.5-0.8-0.8c-0.1-0.4,0-0.9,0.3-1.6c0-0.1,0.6-1.2,1.6-3.4c1-2.2,1.9-4.3,2.8-6.4
		c0.9-2.1,1.5-3.8,1.8-5C121.4,222.9,121.6,222,121.5,221.2z"/>
	<path class="st0" d="M112.6,219.7c-0.2-0.4-0.5-0.8-0.8-1.1c-0.3-0.3-0.7-0.6-1.1-0.9c-1-0.6-1.9-0.9-2.8-0.9
		c-0.9,0.1-1.6,0.5-2.1,1.3c-0.6,0.9-0.5,2.5,0.2,4.7l0,0c0,0,0,0.1,0.1,0.2c1.1,3.2,1.2,5.4,0.3,6.8c-0.4,0.6-0.9,1.1-1.6,1.6
		c-0.7,0.4-1.4,0.7-2.2,0.9c-1.2,0.3-2.4,0.3-3.5,0.1c-1.1-0.2-2.1-0.6-3-1.1c-0.7-0.4-1.1-0.9-1.3-1.3c-0.2-0.4-0.1-0.9,0.1-1.3
		c0.1-0.2,0.3-0.3,0.6-0.5c0.3-0.2,0.6-0.4,1.1-0.6c0.2,0.3,0.5,0.7,0.8,1c0.3,0.3,0.6,0.6,1,0.8c1.1,0.7,2.1,1,3,0.9
		c0.9-0.1,1.7-0.6,2.2-1.4c0.3-0.5,0.5-1,0.5-1.6c0-0.6-0.1-1.4-0.4-2.4c0-0.1-0.1-0.4-0.2-0.7c-1.1-3.4-1.2-5.8-0.3-7.1
		c0.3-0.5,0.7-0.9,1.2-1.3c0.5-0.4,1.1-0.7,1.8-0.9c1.1-0.4,2.3-0.5,3.5-0.3c1.2,0.2,2.3,0.6,3.4,1.3c0.7,0.5,1.2,0.9,1.4,1.4
		c0.2,0.5,0.2,1-0.2,1.5c-0.1,0.2-0.3,0.4-0.6,0.6C113.3,219.4,113,219.5,112.6,219.7z"/>
	<path class="st0" d="M76.1,208.7c0.2,0.6,0.5,1.1,0.8,1.7c0.3,0.5,0.8,1.1,1.3,1.6c2,2.1,4.1,3.2,6.5,3.5c2.3,0.2,4.4-0.5,6.3-2.3
		c1.8-1.7,2.8-3.7,2.8-6c0-2.3-0.8-4.4-2.6-6.3c-0.6-0.6-1.1-1.1-1.8-1.5c-0.6-0.4-1.4-0.7-2.1-1c0.1-0.5,0.2-0.9,0.3-1.2
		c0.1-0.3,0.3-0.5,0.5-0.7c0.5-0.4,1.1-0.4,2,0c0.9,0.4,1.8,1.2,2.9,2.3c1.2,1.2,2.1,2.5,2.7,3.9c0.6,1.4,1,2.7,1.1,4.1
		c0.1,1.7-0.1,3.2-0.7,4.6c-0.6,1.4-1.5,2.7-2.7,3.8c-1.3,1.2-2.7,2-4.3,2.5c-1.6,0.4-3.4,0.5-5.3,0.1c-1.4-0.3-2.8-0.8-4.2-1.6
		c-1.4-0.8-2.7-1.9-3.9-3.1c-0.9-1-1.5-1.7-1.7-2.3c-0.2-0.5-0.1-1,0.3-1.4c0.2-0.2,0.4-0.3,0.7-0.4C75.2,209,75.6,208.9,76.1,208.7
		z"/>
	<path class="st0" d="M80.7,179.9c0.7,1.4,1,2.8,1.1,4.2c0.1,1.4-0.1,2.8-0.5,4.1c-0.5,1.4-1.2,2.7-2.2,3.7c-1,1.1-2.3,2-3.8,2.7
		c-1.5,0.7-3,1.1-4.5,1.1c-1.5,0.1-3-0.2-4.5-0.8c-1.4-0.6-2.7-1.4-3.8-2.5c-1.1-1.1-2.1-2.5-2.8-4c-1.5-3.1-1.7-6-0.9-8.7
		c0.9-2.7,2.8-4.7,5.7-6.1c1.4-0.7,2.9-1.1,4.4-1.1c1.5-0.1,3,0.1,4.4,0.6c1.7,0.6,3.1,1.4,4.3,2.5C79,176.9,80,178.3,80.7,179.9z
		 M66.1,176.6c-2.3,1.1-3.8,2.6-4.6,4.7c-0.7,2-0.6,4.2,0.5,6.5c1.1,2.4,2.8,4,4.9,4.7c2.1,0.8,4.4,0.6,6.9-0.6
		c2.4-1.1,4-2.7,4.8-4.8c0.8-2.1,0.7-4.2-0.3-6.5c-1.1-2.4-2.8-3.9-5.1-4.7C71,175.2,68.6,175.4,66.1,176.6z"/>
	<path class="st0" d="M53.6,167.1c-0.5-0.3-0.8-0.6-1-0.9c-0.2-0.3-0.4-0.7-0.4-1.1c-0.1-1,1.3-2.2,4.3-3.6c0.3-0.2,0.6-0.3,0.8-0.4
		l0,0c7.9-3.8,11.8-5.9,11.7-6.3c0-0.1-0.3-0.4-0.8-0.7c-0.5-0.3-1.2-0.7-2-1c-2.9-1.2-5.4-2-7.4-2.4c-2-0.4-3.9-0.5-5.7-0.3
		c-0.4,0.1-0.8,0.1-1.2,0.2c-0.4,0.1-0.7,0.2-1.1,0.4c-0.2-0.3-0.3-0.6-0.4-0.9c-0.1-0.3-0.2-0.5-0.2-0.7c-0.1-0.6,0-1.1,0.3-1.4
		c0.3-0.3,0.8-0.5,1.5-0.6c1.9-0.2,4.3,0,6.9,0.7c2.7,0.7,5.9,1.9,9.7,3.7c1.8,0.8,3,1.4,3.6,1.8c0.6,0.4,0.9,0.7,1,1
		c0,0.4-0.3,0.8-0.9,1.3c-0.6,0.5-1.6,1.2-2.9,1.9c-2,1.1-4.6,2.5-7.8,4.1C56.9,164.4,54.2,166.1,53.6,167.1z"/>
	<path class="st0" d="M55.2,123.9c-0.3,0.5-0.6,1.1-0.8,1.9c-0.2,0.7-0.4,1.7-0.6,2.8c-0.1,0.5-0.2,1.4-0.3,2.7
		c0,0.3-0.1,0.6-0.1,0.7l6.6,1c0.1-0.3,0.1-0.6,0.1-0.9c0-0.3,0.1-0.8,0.2-1.5c0.2-1.3,0.3-2.4,0.4-3.3c0.1-0.9,0.1-1.5,0-1.9
		c0.3-0.1,0.6-0.1,0.8-0.2c0.2,0,0.4,0,0.6,0c0.5,0.1,0.8,0.3,1,0.6c0.2,0.3,0.2,0.9,0.1,1.6c0,0.2-0.1,0.8-0.3,1.7
		c-0.1,0.9-0.3,1.7-0.3,2.3c-0.1,0.5-0.1,0.9-0.1,1.2c0,0.3-0.1,0.5-0.1,0.8c1.1,0.2,2.3,0.3,3.6,0.5c1.3,0.2,2.7,0.4,4.2,0.7
		c0-0.1,0-0.2,0.1-0.4c0.2-1.3,0.3-2.2,0.4-2.8c0.1-1.1,0.2-2,0.2-2.8c0-0.8-0.1-1.5-0.3-2.1c0.4-0.2,0.8-0.3,1.1-0.3
		c0.3-0.1,0.6-0.1,0.8,0c0.5,0.1,0.9,0.3,1,0.7c0.2,0.4,0.2,1.1,0.1,2c-0.1,0.5-0.2,1.2-0.3,2.1c-0.2,1-0.3,1.7-0.3,2.1
		c-0.1,1.1-0.3,2.1-0.4,3.2c0,0.2,0,0.4,0,0.4c0,0.3-0.2,0.6-0.3,0.7c-0.2,0.1-0.5,0.2-0.9,0.1c-0.2,0-0.7-0.1-1.6-0.3
		c-3.1-0.6-6-1-8.7-1.4c-2.7-0.4-4.8-0.6-6.5-0.7c-1.6-0.1-2.9-0.1-3.7,0l0.3-1.9c0.3-2.3,0.6-4.7,0.7-7.2c0-0.5,0.1-0.9,0.1-1
		c0.1-0.8,0.3-1.4,0.5-1.6c0.2-0.3,0.6-0.4,1-0.3c0.3,0,0.5,0.1,0.9,0.3C54.5,123.4,54.8,123.7,55.2,123.9z"/>
	<path class="st0" d="M70.4,107.4c0.5-0.6,1.5-1.1,3.1-1.7c0.4-0.1,0.7-0.3,1-0.3c1.6-0.6,2.8-1.1,3.8-1.7c1-0.5,1.6-1,2-1.5
		c0.6,0.6,1,1.1,1.2,1.5c0.2,0.4,0.2,0.8,0,1.3c-0.1,0.3-0.4,0.7-0.9,1c-0.5,0.3-1.1,0.6-2,0.9c-0.7,0.2-1.6,0.5-2.7,0.9
		c-3.6,1.1-5.6,2.3-6.1,3.6c-0.1,0.1-0.1,0.3-0.2,0.6c-0.1,0.2-0.2,0.5-0.2,0.8c2.1,0.8,3.7,1.3,4.7,1.6c1,0.3,1.8,0.4,2.5,0.3
		c0.1,0.5,0.1,1,0,1.5c0,0.4-0.1,0.8-0.3,1.1c-0.2,0.5-0.5,0.8-0.8,0.9c-0.3,0.1-0.9,0-1.7-0.4c-0.3-0.1-1.5-0.7-3.6-1.6
		c-2.1-1-4.2-1.9-6.1-2.6c-2.5-1-4.3-1.7-5.5-2c-1.2-0.4-2.2-0.5-3-0.5c0.5-1.2,0.9-2.5,1.4-3.8c0.5-1.3,0.7-2.1,0.8-2.2
		c0.9-2.1,2-3.5,3.5-4.3c1.5-0.8,3.1-0.9,4.8-0.2c1.5,0.6,2.6,1.5,3.4,2.7C70.1,104.2,70.4,105.7,70.4,107.4z M58.9,108.2
		c1.5,0.7,3,1.4,4.4,2c1.4,0.6,2.8,1.2,4.1,1.7c0-0.1,0.1-0.2,0.1-0.3c0.1-0.1,0.1-0.2,0.1-0.3c0.8-1.9,0.9-3.6,0.5-5
		c-0.5-1.4-1.5-2.5-3.1-3.1c-1.2-0.5-2.3-0.5-3.3,0c-1,0.5-1.8,1.5-2.4,2.9c-0.1,0.3-0.2,0.6-0.3,1C59.1,107.5,59,107.8,58.9,108.2z
		"/>
</g>
<ellipse transform="matrix(0.3494 -0.937 0.937 0.3494 -12.1656 131.2446)" class="st0" cx="88.4" cy="74.4" rx="5.6" ry="5.6"/>
<ellipse transform="matrix(0.3494 -0.937 0.937 0.3494 72.4949 269.9676)" class="st0" cx="230.6" cy="82.8" rx="5.6" ry="5.6"/>
<ellipse transform="matrix(0.9096 -0.4156 0.4156 0.9096 -80.5571 96.696)" class="st0" cx="181.9" cy="233.4" rx="5.6" ry="5.6"/>
<path class="st1" d="M216.1,153.9"/>
<g>
	<g>
		<path class="st0" d="M137.8,210h-4.6l-3.6-3.6l-0.4-2.2l-0.9-2.9c0,0-0.8-2.6-2.4-3c0,0-3,0.4-3.6,0.9c0,0-5.1-2.5-5.7-3.9
			l-2.1-0.1c0,0-2.6,3.7-4.2,3.6c0,0-2.3-0.2-2-1.5l2.1-3.1v-0.8l-1.1-0.1l-0.8,0.3c0,0-2-3.1,0.1-5.2l2-0.2l0.7,1.1l3.5-2.6
			c0,0-1.5-3.8-1-4.2l0.1-1.4l-0.3-1.7l-0.5-1.7c0,0-1-1.6-1.4-1.6c-0.4,0-1-1.5,0.8-0.9l3-0.2c0,0,3.9-2.8,3.9-3.2
			c0-0.4,0-0.4,0-0.4l0.3-1.2l1.3-2.6l0.3-2.4l1.1-2.8l0.9-2.4l0.5-0.2v-1.9l-1.9-2.5l-0.1-4.4l-0.3-0.9c0,0,1.1-2.8,1.4-2.8
			c0.3,0-4,0.4-2,4.7l0.3,0.5v2.8l-0.3,1.1l-0.4,0.5v1.5c0,0-1.7,0.6-2.1,1.3l-1.5-1.3c0,0,1.5-4.3,2.1-4.8c0.6-0.4,0-0.3,0-0.3
			s-2.1,0.5-2.3,2.5l-0.4,1l-0.8,1l-0.6,1.2l-0.8,0.1l-0.3,1.1l-0.4,0.8l-0.6,0.6l-0.2,0.3l-3.2-1.4c0,0-3.6-3.1-3.6-3.6
			c0,0-0.7-1.5-2-1.8l-2-0.4c0,0-4.6-1.9-4.2-3.8l0.8-0.1l0.4,0.2c0,0,2.5-0.9,3.6-2l0.1-2l0.4-0.3v-2.1l-0.3-0.3v-1.6l-0.5-0.3
			v-0.7l-0.4-0.2v-0.6l-0.3-0.3v-0.6l-0.6-0.3v-0.8H100v-2l0.4,0.1l0.2-0.5l0.5-0.6l-0.1-0.6l0.3-0.3l0.5-0.4v-1.6l0.4-0.1v-0.5
			c0,0-4.2-4.2-3.1-6.4c0,0,0.6-1.5,1.4-2l4.4,0.2l1.1-0.5l0.3-0.8l0.3-0.5l0.1-1.5l0.3-0.3l0.1-0.6l0.4-0.2l0.1-0.9l0.6-0.1
			l-0.1-0.5l0.3-0.5v-0.5h0.6l-1.6-3.9l0.6-1.4l0.8-0.8c0,0,2.2-3.8,3.5-3.5l0.4-0.3l3-2.7l0.3-1l0.5-0.2l0.1-0.8l0.5-0.2l0.1-5.5
			h0.7l0.5-0.3c0,0-1.9-2.4-1.3-2.7l0.3-0.5l0.4-0.4l-0.2-1.4l-0.8-0.7l-0.9-0.3l-0.4-2.2l1.4-1.4h2.4l0.3-0.3h0.7l0.3-0.5h0.8
			l0.1-0.6l0.9-0.5l0.7-0.3l0.7-0.4l0.8-0.4l0.3-0.5l2.8,0.1l0.2-0.3h0.7c0,0,1.5-1.2,1.7-1.4c0.2-0.2,5-0.2,5-0.2s2-2,3-2
			c1,0,0.2,0,0.2,0l1,0.5l0.2-0.6l1.2-0.6l0.6-0.7l0.3-0.1v-2.5l1.4-1.5l3.5,3.6l1.2-0.1l0.6,1l1.4,0.5v0.3h1l3.1,3.1h1.5l2.6,2.1
			l2.9,1l0.9,0.1l0.9,1.2l1.2,0.2l0.6,0.5l0.1-0.5l1.2-0.1L166,87l1.1-0.1l0.6,0.8l-0.2,0.3l-0.1,0.9l1.1,0.6l1.7,1.4l0.5-0.4
			c0,0,2.5,0.2,1.1,2.7c0,0,0.1,3.4,3.9,3.9l0.6,0.3l1.8-0.2l0.4-0.2h1.3c0,0,3.6,2.2,4.7,2.6l1.6-0.2c0,0,2.2-1.5,2.4-0.6
			c0,0,2,2.5,5.5-0.7l0.2-1.8l4.3,0.1c0,0,3,0.4,5.3,3.7l3.7,3.5l4.4,0.6l2.6,1.9l1.7,0.1l1.1,0.6l0.1,0.8l-4.2,0.2
			c0,0-0.6-1.1-2.3-0.6l-0.2,0.8c0,0,4,0.9,4.2,5.7c0,0,3.3,1.3,3.4,2.3c0,0,0.6,2-0.6,3.3c0,0,1,5.6,1.4,5.6c0.3,0-3.1,1.1-3.5-0.2
			c0,0-3.2,12-3.2,12c0,0.1-16.3,19.8-22.4,21.4c0,0-24.4,10.1-25.9,9.4l-8,7.9v0.2c0,0,1.6,2.2,0.7,2.6c0,0-1.6,1.5-1.7,0.3
			l0.4-1.3c0,0-1.4-1.8-2.2,0.5l-1,6.4c0,0-2.9,2-3.3,4.3l-0.3,3.4l-2.2,3.6l0.2,1.9l0.3,2.6c0,0-0.4,1.8-2.6,1.8c0,0-3.2,1.5-3,2.9
			l-0.3,3.1C140.9,207.7,139.2,210.5,137.8,210z"/>
	</g>
</g>
</svg>
