<?xml version="1.0" encoding="iso-8859-1"?>
<!-- Generator: Adobe Illustrator 19.0.0, SVG Export Plug-In . SVG Version: 6.00 Build 0)  -->
<svg version="1.1" id="Layer_1" xmlns="http://www.w3.org/2000/svg" xmlns:xlink="http://www.w3.org/1999/xlink" x="0px" y="0px"
	 viewBox="0 0 473.656 473.656" style="enable-background:new 0 0 473.656 473.656;" xml:space="preserve">
<path style="fill:#7EAF37;" d="M388.879,418.346H84.751c41.143,34.505,94.166,55.308,152.062,55.308
	C294.709,473.654,347.732,452.851,388.879,418.346z"/>
<circle style="fill:#B9E8EA;" cx="236.828" cy="236.827" r="236.827"/>
<g>
	<path style="fill:#726A62;" d="M257.171,69.425c-16.462-1.586-36.827,0.019-36.827,0.019l-0.007,2.719
		c2.378-0.101,21.218-1.862,36.607-0.378c15.407,1.485,34.37,6.903,36.749,7.457l0.512-2.674
		C294.204,76.568,273.633,71.015,257.171,69.425z"/>
	<path style="fill:#726A62;" d="M257.272,60.499c-16.574-1.597-37.078,0.022-37.078,0.022l-0.007,2.737
		c2.401-0.105,21.364-1.877,36.854-0.385c15.515,1.496,36.154,7.101,38.548,7.659l0.516-2.689
		C296.104,67.843,273.846,62.099,257.272,60.499z"/>
	
		<rect x="220.293" y="62.54" transform="matrix(-0.9991 0.0417 -0.0417 -0.9991 445.1738 123.3095)" style="fill:#726A62;" width="2.016" height="7.516"/>
	
		<rect x="290.134" y="72.296" transform="matrix(-0.2288 0.9735 -0.9735 -0.2288 432.4936 -196.0193)" style="fill:#726A62;" width="7.517" height="2.019"/>
	
		<rect x="253.139" y="64.75" transform="matrix(-0.0851 0.9964 -0.9964 -0.0851 344.4034 -184.7276)" style="fill:#726A62;" width="7.749" height="2.016"/>
	
		<rect x="235.661" y="64.538" transform="matrix(-0.0335 0.9994 -0.9994 -0.0335 313.2103 -171.7955)" style="fill:#726A62;" width="8.021" height="2.016"/>
	
		<rect x="224.76" y="62.154" transform="matrix(-0.9984 0.0571 -0.0571 -0.9984 454.9334 118.8892)" style="fill:#726A62;" width="2.016" height="7.58"/>
	
		<rect x="229.617" y="61.879" transform="matrix(-0.9995 0.0326 -0.0326 -0.9995 463.269 123.8891)" style="fill:#726A62;" width="2.016" height="7.685"/>
	
		<rect x="234.228" y="61.419" transform="matrix(-0.9995 0.0317 -0.0317 -0.9995 472.4226 123.033)" style="fill:#726A62;" width="2.016" height="7.685"/>
	
		<rect x="239.781" y="64.421" transform="matrix(-0.0655 0.9979 -0.9979 -0.0655 324.8122 -173.3344)" style="fill:#726A62;" width="7.58" height="2.016"/>
	
		<rect x="244.611" y="64.779" transform="matrix(-0.0905 0.9959 -0.9959 -0.0905 336.4565 -175.6909)" style="fill:#726A62;" width="7.685" height="2.019"/>
	
		<rect x="249.212" y="64.912" transform="matrix(-0.0898 0.996 -0.996 -0.0898 341.4289 -180.1913)" style="fill:#726A62;" width="7.681" height="2.016"/>
	
		<rect x="271.305" y="67.941" transform="matrix(-0.1587 0.9873 -0.9873 -0.1587 387.0844 -191.9316)" style="fill:#726A62;" width="8.017" height="2.019"/>
	
		<rect x="285.423" y="71.083" transform="matrix(-0.2434 0.9699 -0.9699 -0.2434 429.5316 -190.8811)" style="fill:#726A62;" width="7.584" height="2.012"/>
	
		<rect x="280.799" y="69.911" transform="matrix(-0.2205 0.9754 -0.9754 -0.2205 416.5774 -191.0791)" style="fill:#726A62;" width="7.685" height="2.016"/>
	
		<rect x="276.491" y="68.582" transform="matrix(-0.2205 0.9754 -0.9754 -0.2205 410.0231 -188.4996)" style="fill:#726A62;" width="7.685" height="2.016"/>
	
		<rect x="266.938" y="67.052" transform="matrix(-0.1267 0.9919 -0.9919 -0.1267 372.5436 -191.8607)" style="fill:#726A62;" width="7.58" height="2.019"/>
	
		<rect x="262.036" y="66.49" transform="matrix(-0.1024 0.9947 -0.9947 -0.1024 360.2485 -190.0702)" style="fill:#726A62;" width="7.684" height="2.016"/>
	
		<rect x="257.473" y="65.691" transform="matrix(-0.1024 0.9947 -0.9947 -0.1024 354.4235 -186.4118)" style="fill:#726A62;" width="7.684" height="2.016"/>
</g>
<path style="fill:#7C7066;" d="M257.949,69.99c-24.734-2.386-43.233,2.203-43.233,2.203l-4.435,45.963l84.196,8.122l4.435-45.959
	C298.916,80.315,282.686,72.376,257.949,69.99z"/>
<path style="fill:#BAABA0;" d="M163.076,392.711l-6.462,66.987c22.396,8.051,46.378,12.868,71.43,13.795
	c18.907,0.703,37.358-0.901,55.14-4.439l6.193-64.16L163.076,392.711z"/>
<path style="fill:#84746D;" d="M158.82,424.939l-3.066,34.423l0.86,0.333c22.396,8.051,46.378,12.868,71.43,13.795
	c18.907,0.703,37.358-0.901,55.14-4.439l3.07-31.798L158.82,424.939z"/>
<path style="fill:#726A62;" d="M289.623,400.935l-125.504-12.109c-1.238-0.123-2.333,0.785-2.453,2.019
	c-0.116,1.238,0.785,2.333,2.023,2.449l125.508,12.112c1.238,0.12,2.337-0.785,2.453-2.023
	C291.762,402.15,290.857,401.051,289.623,400.935z"/>
<path style="fill:#C6AA95;" d="M257.478,74.904c-24.734-2.382-43.237,2.203-43.237,2.203l-4.925,51.041l84.196,8.126l4.929-51.045
	C298.445,85.229,282.208,77.286,257.478,74.904z"/>
<g>
	<path style="fill:#A39084;" d="M225.815,85.146l-0.808,0.146c-5.374,0.961-10.138,5.983-10.643,11.211l-4.001,41.442
		c-0.501,5.232,19.764,1.608,20.268-3.62l3.998-41.442C235.134,87.652,231.189,84.189,225.815,85.146z"/>
	<path style="fill:#A39084;" d="M248.619,78.041L248.207,78c-2.719-0.266-5.138,1.731-5.4,4.45l-4.192,43.48
		c-0.266,2.719,9.996,3.713,10.258,0.991l4.2-43.484C253.331,80.719,251.337,78.299,248.619,78.041z"/>
</g>
<path style="fill:#847F7C;" d="M248.331,80.206l-0.254-0.026c-1.672-0.157-3.16,1.07-3.324,2.741l-1.429,14.786l6.316,0.61
	l1.425-14.79C251.229,81.852,250.002,80.367,248.331,80.206z"/>
<g>
	<path style="fill:#A39084;" d="M291.964,87.057l-0.396-0.157c-2.648-1.043-5,0.322-5.265,3.044l-4.196,43.484
		c-0.262,2.722,9.715,6.641,9.977,3.923l4.2-43.484C296.541,91.145,294.608,88.097,291.964,87.057z"/>
	<path style="fill:#A39084;" d="M270.035,89.204l-0.774-0.232c-5.138-1.507-9.704,1.507-10.209,6.739l-3.998,41.442
		c-0.505,5.232,18.862,10.931,19.371,5.699l3.998-41.442C278.924,96.182,275.173,90.715,270.035,89.204z"/>
</g>
<g>
	<path style="fill:#847F7C;" d="M269.564,92.812l-0.527-0.157c-3.493-1.025-6.604,1.025-6.944,4.581l-2.722,28.178
		c-0.34,3.56,12.827,7.434,13.171,3.874l2.719-28.181C275.607,97.554,273.057,93.837,269.564,92.812z"/>
	<path style="fill:#847F7C;" d="M225.332,88.815l-0.55,0.097c-3.65,0.651-6.896,4.061-7.236,7.625l-2.719,28.178
		c-0.34,3.56,13.44,1.096,13.784-2.461l2.719-28.181C231.671,90.516,228.986,88.164,225.332,88.815z"/>
	<path style="fill:#847F7C;" d="M291.68,89.204l-0.247-0.097c-1.627-0.639-3.081,0.198-3.242,1.87l-1.429,14.786l6.144,2.416
		l1.429-14.786C294.496,91.717,293.303,89.843,291.68,89.204z"/>
</g>
<path style="fill:#C6AA95;" d="M251.446,130.092c-24.229-2.341-53.734-1.223-57.481-1.066l0.516,41.779l106.492,10.273l8.496-40.907
	C305.726,139.303,275.708,132.43,251.446,130.092z"/>
<g>
	<path style="fill:#726A62;" d="M252.186,134.606c-2.483-0.236-4.746,2.218-5.063,5.49l-3.422,35.455l8.979,0.864l3.422-35.451
		C256.419,137.695,254.662,134.849,252.186,134.606z"/>
	<path style="fill:#726A62;" d="M225.673,133.207c-2.225-0.097-4.173,2.419-4.345,5.609l-1.851,34.4l8.044,0.774l1.874-34.827
		C229.566,135.963,227.898,133.297,225.673,133.207z"/>
	<path style="fill:#726A62;" d="M239.083,133.948c-2.416-0.176-4.581,2.304-4.832,5.531l-2.704,34.898l8.743,0.845l2.722-35.111
		C243.26,136.887,241.499,134.124,239.083,133.948z"/>
	<path style="fill:#726A62;" d="M202.555,134.385c-1.574-0.019-2.932,2.348-3.025,5.288l-0.991,31.521l5.703,0.55l1.006-31.992
		C205.344,136.812,204.136,134.412,202.555,134.385z"/>
	<path style="fill:#726A62;" d="M213.871,133.914c-1.967-0.101-3.717,2.289-3.908,5.34l-2.031,32.845l7.109,0.688l2.049-33.159
		C217.281,136.577,215.841,134.019,213.871,133.914z"/>
	<path style="fill:#726A62;" d="M278.184,138.263c-2.21-0.295-4.319,2.038-4.719,5.217l-4.315,34.527l8.036,0.778l4.282-34.247
		C281.863,141.363,280.394,138.551,278.184,138.263z"/>
	<path style="fill:#726A62;" d="M265.166,136.468c-2.408-0.292-4.66,2.083-5.03,5.299l-4.024,34.98l8.747,0.845l3.998-34.774
		C269.227,139.598,267.575,136.756,265.166,136.468z"/>
	<path style="fill:#726A62;" d="M301.186,143.906c-1.556-0.28-3.194,1.844-3.669,4.746l-5.146,31.599l5.703,0.55l5.071-31.128
		C303.617,146.767,302.738,144.187,301.186,143.906z"/>
	<path style="fill:#726A62;" d="M289.642,141.218c-1.956-0.239-3.829,2.031-4.185,5.067l-3.841,32.923l7.105,0.684l3.818-32.744
		C292.895,144.112,291.594,141.457,289.642,141.218z"/>
	<path style="fill:#726A62;" d="M251.801,126.409c-25.923-2.502-57.982-0.015-57.982-0.015l-0.011,4.244
		c3.751-0.153,33.409-2.883,57.638-0.542c24.262,2.337,54.127,10.822,57.87,11.69l0.8-4.17
		C310.116,137.613,277.724,128.911,251.801,126.409z"/>
	<path style="fill:#726A62;" d="M251.943,112.479c-26.098-2.52-58.375-0.019-58.375-0.019l-0.007,4.278
		c3.769-0.157,33.634-2.902,58.027-0.55c24.427,2.356,56.935,11.129,60.697,12.008l0.808-4.203
		C313.093,123.993,278.042,114.996,251.943,112.479z"/>
	
		<rect x="193.772" y="115.63" transform="matrix(-0.9993 0.038 -0.038 -0.9993 395.1905 235.4874)" style="fill:#726A62;" width="3.171" height="11.739"/>
	
		<rect x="303.756" y="130.949" transform="matrix(-0.2296 0.9733 -0.9733 -0.2296 509.7105 -138.3925)" style="fill:#726A62;" width="11.742" height="3.171"/>
	
		<rect x="245.483" y="119.121" transform="matrix(-0.085 0.9964 -0.9964 -0.085 393.1799 -119.6494)" style="fill:#726A62;" width="12.09" height="3.175"/>
	
		<rect x="217.971" y="118.675" transform="matrix(-0.0327 0.9995 -0.9995 -0.0327 351.7558 -99.9147)" style="fill:#726A62;" width="12.513" height="3.171"/>
	
		<rect x="200.758" y="115.036" transform="matrix(-0.9985 0.0552 -0.0552 -0.9985 411.0547 230.5543)" style="fill:#726A62;" width="3.171" height="11.836"/>
	
		<rect x="208.429" y="114.598" transform="matrix(-0.9995 0.0322 -0.0322 -0.9995 423.8029 234.3647)" style="fill:#726A62;" width="3.171" height="11.993"/>
	
		<rect x="215.657" y="113.885" transform="matrix(-0.9995 0.0305 -0.0305 -0.9995 438.0437 233.081)" style="fill:#726A62;" width="3.175" height="11.992"/>
	
		<rect x="224.463" y="118.576" transform="matrix(-0.0657 0.9978 -0.9978 -0.0657 365.4193 -101.8223)" style="fill:#726A62;" width="11.832" height="3.175"/>
	
		<rect x="232.059" y="119.125" transform="matrix(-0.0895 0.996 -0.996 -0.0895 379.5918 -105.5862)" style="fill:#726A62;" width="11.997" height="3.175"/>
	
		<rect x="239.35" y="119.344" transform="matrix(-0.09 0.9959 -0.9959 -0.09 387.8688 -112.5304)" style="fill:#726A62;" width="11.989" height="3.178"/>
	
		<rect x="274.1" y="124.096" transform="matrix(-0.1589 0.9873 -0.9873 -0.1589 448.9923 -131.1436)" style="fill:#726A62;" width="12.516" height="3.171"/>
	
		<rect x="296.391" y="128.985" transform="matrix(-0.2451 0.9695 -0.9695 -0.2451 502.9912 -130.5106)" style="fill:#726A62;" width="11.832" height="3.175"/>
	
		<rect x="289.074" y="127.251" transform="matrix(-0.2217 0.9751 -0.9751 -0.2217 486.1187 -130.3269)" style="fill:#726A62;" width="11.993" height="3.171"/>
	
		<rect x="282.277" y="125.142" transform="matrix(-0.2215 0.9752 -0.9752 -0.2215 475.7049 -126.3147)" style="fill:#726A62;" width="11.993" height="3.175"/>
	
		<rect x="267.238" y="122.698" transform="matrix(-0.1262 0.992 -0.992 -0.1262 430.9172 -130.9996)" style="fill:#726A62;" width="11.832" height="3.175"/>
	
		<rect x="259.526" y="121.792" transform="matrix(-0.1023 0.9948 -0.9948 -0.1023 415.4146 -128.1306)" style="fill:#726A62;" width="11.993" height="3.171"/>
	
		<rect x="252.34" y="120.6" transform="matrix(-0.1025 0.9947 -0.9947 -0.1025 406.3585 -122.2609)" style="fill:#726A62;" width="11.989" height="3.175"/>
</g>
<path style="fill:#C6AA95;" d="M247.104,174.814c-25.104-2.419-55.664-1.402-59.541-1.26l0.681,41.79l110.347,10.65l8.657-40.888
	C303.366,184.223,272.245,177.245,247.104,174.814z"/>
<g>
	<path style="fill:#726A62;" d="M247.456,171.138c-26.858-2.592-60.058-0.217-60.058-0.217l0.004,4.244
		c3.882-0.142,34.591-2.767,59.699-0.348c25.145,2.427,56.105,11.017,59.987,11.899l0.819-4.17
		C307.906,182.544,274.321,173.726,247.456,171.138z"/>
	<path style="fill:#726A62;" d="M247.889,179.339c-2.573-0.243-4.91,2.203-5.224,5.475l-3.425,35.455l9.308,0.897l3.422-35.455
		C252.287,182.443,250.455,179.589,247.889,179.339z"/>
	<path style="fill:#726A62;" d="M220.415,177.843c-2.307-0.101-4.312,2.408-4.48,5.602l-1.799,34.4l8.336,0.8l1.821-34.834
		C224.457,180.618,222.726,177.948,220.415,177.843z"/>
	<path style="fill:#726A62;" d="M234.311,178.632c-2.502-0.183-4.738,2.289-4.985,5.516l-2.678,34.901l9.057,0.875l2.7-35.115
		C238.645,181.586,236.817,178.815,234.311,178.632z"/>
	<path style="fill:#726A62;" d="M196.478,178.946c-1.634-0.026-3.033,2.333-3.115,5.273l-0.924,31.532l5.912,0.572l0.935-32
		C199.372,181.381,198.112,178.976,196.478,178.946z"/>
	<path style="fill:#726A62;" d="M208.198,178.516c-2.042-0.112-3.844,2.274-4.035,5.325l-1.989,32.848l7.367,0.707l2.012-33.159
		C211.739,181.19,210.239,178.624,208.198,178.516z"/>
	<path style="fill:#726A62;" d="M274.829,183.082c-2.285-0.303-4.469,2.027-4.869,5.202l-4.349,34.527l8.324,0.8l4.315-34.24
		C278.655,186.201,277.122,183.381,274.829,183.082z"/>
	<path style="fill:#726A62;" d="M261.341,181.242c-2.494-0.299-4.82,2.068-5.198,5.292L252.1,221.51l9.054,0.871l4.028-34.774
		C265.551,184.391,263.831,181.541,261.341,181.242z"/>
	<path style="fill:#726A62;" d="M298.677,188.811c-1.608-0.288-3.302,1.836-3.784,4.738l-5.22,31.584l5.909,0.568l5.146-31.121
		C301.205,191.683,300.288,189.099,298.677,188.811z"/>
	<path style="fill:#726A62;" d="M286.706,186.081c-2.027-0.243-3.956,2.019-4.315,5.06l-3.867,32.919l7.367,0.711l3.841-32.744
		C290.091,188.991,288.737,186.328,286.706,186.081z"/>
</g>
<path style="fill:#C6AA95;" d="M242.826,219.016c-25.545-2.461-56.632-1.5-60.577-1.357l0.767,41.801l112.266,10.83l8.743-40.881
	C300.079,228.518,268.408,221.487,242.826,219.016z"/>
<g>
	<path style="fill:#726A62;" d="M243.181,215.336c-27.329-2.64-61.101-0.318-61.101-0.318l0.011,4.248
		c3.949-0.138,35.189-2.711,60.734-0.251c25.582,2.472,57.096,11.114,61.041,12.004l0.826-4.17
		C304.694,226.85,270.51,217.972,243.181,215.336z"/>
	<path style="fill:#726A62;" d="M243.63,223.548c-2.614-0.254-4.992,2.191-5.306,5.46l-3.422,35.455l9.469,0.916l3.422-35.455
		C248.11,226.652,246.248,223.799,243.63,223.548z"/>
	<path style="fill:#726A62;" d="M215.681,222.004c-2.345-0.108-4.383,2.393-4.551,5.591l-1.773,34.404l8.481,0.819l1.795-34.838
		C219.798,224.79,218.033,222.108,215.681,222.004z"/>
	<path style="fill:#726A62;" d="M229.816,222.815c-2.547-0.187-4.817,2.277-5.063,5.508l-2.67,34.901l9.218,0.89l2.681-35.111
		C234.236,225.777,232.366,223.006,229.816,222.815z"/>
	<path style="fill:#726A62;" d="M191.328,223.066c-1.66-0.03-3.081,2.33-3.16,5.273l-0.886,31.532l6.013,0.58l0.898-32.003
		C194.275,225.504,192.993,223.099,191.328,223.066z"/>
	<path style="fill:#726A62;" d="M203.25,222.654c-2.075-0.116-3.904,2.266-4.087,5.325l-1.971,32.848l7.494,0.722l1.989-33.159
		C206.859,225.336,205.329,222.77,203.25,222.654z"/>
	<path style="fill:#726A62;" d="M271.045,227.332c-2.33-0.31-4.547,2.019-4.947,5.194l-4.368,34.524l8.474,0.815l4.334-34.24
		C274.942,230.455,273.378,227.635,271.045,227.332z"/>
	<path style="fill:#726A62;" d="M257.317,225.466c-2.539-0.299-4.903,2.064-5.277,5.28l-4.057,34.976l9.214,0.894l4.039-34.774
		C261.61,228.626,259.852,225.773,257.317,225.466z"/>
	<path style="fill:#726A62;" d="M295.315,233.103c-1.638-0.292-3.358,1.829-3.841,4.727l-5.262,31.584l6.013,0.583l5.183-31.117
		C297.895,235.978,296.956,233.391,295.315,233.103z"/>
	<path style="fill:#726A62;" d="M283.135,230.35c-2.064-0.243-4.028,2.016-4.383,5.052l-3.878,32.919l7.49,0.725l3.855-32.74
		C286.579,233.263,285.199,230.601,283.135,230.35z"/>
</g>
<path style="fill:#C6AA95;" d="M238.683,261.639c-26.641-2.569-59.044-1.731-63.161-1.612l0.969,41.823l117.09,11.297l8.949-40.866
	C298.404,271.381,265.357,264.216,238.683,261.639z"/>
<g>
	<path style="fill:#726A62;" d="M239.038,257.96c-28.503-2.752-63.7-0.568-63.7-0.568l0.03,4.248c4.117-0.123,36.674-2.569,63.315,0
		c26.678,2.577,59.571,11.35,63.689,12.255l0.841-4.166C303.213,269.728,267.541,260.708,239.038,257.96z"/>
	<path style="fill:#726A62;" d="M239.543,266.172c-2.726-0.258-5.194,2.176-5.512,5.445l-3.418,35.455l9.872,0.95l3.422-35.455
		C244.221,269.302,242.269,266.433,239.543,266.172z"/>
	<path style="fill:#726A62;" d="M210.396,264.515c-2.449-0.116-4.559,2.378-4.719,5.576l-1.709,34.412l8.848,0.853l1.724-34.845
		C214.697,267.316,212.842,264.631,210.396,264.515z"/>
	<path style="fill:#726A62;" d="M225.134,265.386c-2.655-0.202-5.011,2.259-5.258,5.493l-2.636,34.901l9.611,0.931l2.651-35.115
		C229.753,268.367,227.793,265.585,225.134,265.386z"/>
	<path style="fill:#726A62;" d="M185.012,265.48c-1.731-0.037-3.201,2.319-3.272,5.258l-0.793,31.547l6.271,0.606l0.804-32.014
		C188.094,267.933,186.747,265.513,185.012,265.48z"/>
	<path style="fill:#726A62;" d="M197.439,265.113c-2.165-0.123-4.061,2.255-4.244,5.31l-1.918,32.852l7.816,0.755l1.941-33.166
		C201.212,267.81,199.604,265.237,197.439,265.113z"/>
	<path style="fill:#726A62;" d="M268.139,270.072c-2.434-0.314-4.731,2.004-5.134,5.176l-4.416,34.527l8.84,0.849l4.375-34.236
		C272.208,273.213,270.566,270.386,268.139,270.072z"/>
	<path style="fill:#726A62;" d="M253.817,268.15c-2.648-0.31-5.097,2.046-5.478,5.262l-4.087,34.976l9.614,0.927l4.065-34.774
		C258.304,271.332,256.464,268.468,253.817,268.15z"/>
	<path style="fill:#726A62;" d="M293.46,275.943c-1.709-0.295-3.496,1.814-3.986,4.716l-5.351,31.573l6.271,0.606l5.277-31.106
		C296.16,278.834,295.173,276.239,293.46,275.943z"/>
	<path style="fill:#726A62;" d="M280.753,273.142c-2.15-0.258-4.188,1.997-4.551,5.037l-3.908,32.916l7.816,0.755l3.885-32.74
		C284.354,276.07,282.903,273.404,280.753,273.142z"/>
</g>
<path style="fill:#C6AA95;" d="M234.449,305.318c-27.303-2.636-60.491-1.87-64.71-1.761l1.092,41.831l119.98,11.578l9.065-40.851
	C295.655,315.197,261.786,307.954,234.449,305.318z"/>
<g>
	<path style="fill:#726A62;" d="M234.801,301.634c-29.202-2.816-65.259-0.718-65.259-0.718l0.037,4.248
		c4.214-0.108,37.568-2.483,64.87,0.153c27.336,2.636,61.052,11.492,65.274,12.404l0.853-4.162
		C300.576,313.56,264.011,304.45,234.801,301.634z"/>
	<path style="fill:#726A62;" d="M235.339,309.854c-2.793-0.269-5.314,2.161-5.628,5.434l-3.418,35.451l10.116,0.976l3.418-35.455
		C240.141,312.991,238.133,310.123,235.339,309.854z"/>
	<path style="fill:#726A62;" d="M205.479,308.122c-2.506-0.123-4.667,2.371-4.828,5.568l-1.664,34.412l9.065,0.875l1.687-34.849
		C209.895,310.934,207.984,308.246,205.479,308.122z"/>
	<path style="fill:#726A62;" d="M220.579,309.031c-2.726-0.206-5.127,2.251-5.37,5.482l-2.621,34.901l9.85,0.95l2.636-35.115
		C225.314,312.023,223.305,309.233,220.579,309.031z"/>
	<path style="fill:#726A62;" d="M179.474,309.031c-1.776-0.045-3.272,2.307-3.339,5.25l-0.737,31.547l6.425,0.621l0.748-32.018
		C182.638,311.488,181.254,309.065,179.474,309.031z"/>
	<path style="fill:#726A62;" d="M192.203,308.694c-2.218-0.127-4.155,2.244-4.33,5.299l-1.888,32.86l8.01,0.77l1.907-33.166
		C196.078,311.398,194.425,308.821,192.203,308.694z"/>
	<path style="fill:#726A62;" d="M264.646,313.818c-2.494-0.318-4.843,1.997-5.25,5.164l-4.439,34.52l9.057,0.871l4.401-34.232
		C268.824,316.974,267.133,314.139,264.646,313.818z"/>
	<path style="fill:#726A62;" d="M249.972,311.866c-2.719-0.314-5.22,2.031-5.602,5.25l-4.102,34.972l9.846,0.95l4.084-34.767
		C254.576,315.052,252.68,312.183,249.972,311.866z"/>
	<path style="fill:#726A62;" d="M290.603,319.749c-1.75-0.299-3.579,1.81-4.072,4.708l-5.411,31.569l6.425,0.621l5.333-31.102
		C293.374,322.647,292.353,320.051,290.603,319.749z"/>
	<path style="fill:#726A62;" d="M277.574,316.921c-2.206-0.266-4.286,1.982-4.652,5.022l-3.927,32.916l8.01,0.77l3.9-32.732
		C281.273,319.861,279.777,317.183,277.574,316.921z"/>
</g>
<path style="fill:#C6AA95;" d="M230.183,349.523c-27.299-2.633-60.488-1.874-64.706-1.765l1.092,41.835l119.98,11.578l9.068-40.851
	C291.392,359.399,257.523,352.159,230.183,349.523z"/>
<g>
	<path style="fill:#726A62;" d="M230.538,345.836c-29.206-2.816-65.259-0.718-65.259-0.718l0.041,4.248
		c4.214-0.112,37.56-2.476,64.859,0.157c27.34,2.636,61.056,11.488,65.278,12.404l0.856-4.166
		C296.313,357.761,259.744,348.655,230.538,345.836z"/>
	<path style="fill:#726A62;" d="M231.073,354.055c-2.793-0.269-5.314,2.161-5.628,5.434l-3.422,35.455l10.119,0.972l3.422-35.451
		C235.878,357.193,233.866,354.325,231.073,354.055z"/>
	<path style="fill:#726A62;" d="M201.212,352.328c-2.506-0.123-4.671,2.371-4.824,5.568l-1.668,34.415l9.061,0.875l1.69-34.849
		C205.629,355.136,203.721,352.451,201.212,352.328z"/>
	<path style="fill:#726A62;" d="M216.316,353.233c-2.726-0.206-5.131,2.247-5.374,5.478l-2.618,34.905l9.846,0.95l2.636-35.115
		C221.051,356.224,219.039,353.438,216.316,353.233z"/>
	<path style="fill:#726A62;" d="M175.211,353.229c-1.78-0.037-3.276,2.311-3.343,5.254l-0.737,31.547l6.425,0.621l0.748-32.018
		C178.375,355.693,176.987,353.27,175.211,353.229z"/>
	<path style="fill:#726A62;" d="M187.94,352.896c-2.214-0.127-4.155,2.244-4.33,5.299l-1.892,32.86l8.01,0.774l1.907-33.17
		C191.815,355.604,190.158,353.027,187.94,352.896z"/>
	<path style="fill:#726A62;" d="M260.38,358.023c-2.494-0.322-4.843,1.993-5.25,5.168l-4.439,34.52l9.057,0.875l4.401-34.24
		C264.557,361.176,262.87,358.341,260.38,358.023z"/>
	<path style="fill:#726A62;" d="M245.706,356.067c-2.715-0.314-5.22,2.031-5.602,5.25l-4.106,34.969l9.85,0.95l4.08-34.767
		C250.309,359.257,248.42,356.385,245.706,356.067z"/>
	<path style="fill:#726A62;" d="M286.34,363.954c-1.754-0.299-3.579,1.806-4.076,4.708l-5.407,31.569l6.425,0.617l5.333-31.102
		C289.107,366.848,288.09,364.257,286.34,363.954z"/>
	<path style="fill:#726A62;" d="M273.307,361.123c-2.206-0.262-4.289,1.982-4.648,5.026l-3.927,32.916l8.006,0.77l3.908-32.732
		C277.01,364.059,275.514,361.385,273.307,361.123z"/>
</g>
<polygon style="fill:#B12E47;" points="245.436,23.548 245.38,37.886 268.094,33.701 "/>
<g>
	<path style="fill:#AD9789;" d="M209.993,404.401c-9.207-0.886-16.869,7.427-17.58,14.753l-1.35,14.016l31.525,3.04l1.35-14.012
		C224.648,414.868,219.196,405.291,209.993,404.401z"/>
	<path style="fill:#AD9789;" d="M183.105,401.81c-8.104-0.778-14.947,7.614-15.658,14.943l-1.354,14.008l27.744,2.678l1.346-14.012
		C195.898,412.097,191.205,402.591,183.105,401.81z"/>
	<path style="fill:#AD9789;" d="M166.326,400.19c-3.018-0.292-6.114,8.463-6.821,15.792l-1.35,14.016l10.34,0.998l1.35-14.012
		C170.551,409.652,169.343,400.482,166.326,400.19z"/>
	<path style="fill:#AD9789;" d="M238.933,407.198c-9.315-0.901-17.06,7.404-17.767,14.734l-1.354,14.012l31.902,3.081l1.35-14.016
		C253.776,417.684,248.248,408.096,238.933,407.198z"/>
	<path style="fill:#AD9789;" d="M265.57,409.764c-7.879-0.759-14.566,7.647-15.272,14.977l-1.35,14.012l26.989,2.603l1.35-14.012
		C277.989,420.018,273.446,410.527,265.57,409.764z"/>
	<path style="fill:#AD9789;" d="M282.477,411.398c-3.68-0.355-7.262,8.347-7.969,15.68l-1.354,14.012l12.61,1.219l1.35-14.012
		C287.824,420.968,286.16,411.75,282.477,411.398z"/>
</g>
<g>
	<path style="fill:#A08E84;" d="M209.196,408.874c-8.122-0.785-13.081,5.389-13.578,10.564l-4.798,49.714
		c8.193,1.612,16.536,2.831,25.021,3.579l4.91-50.866C221.249,416.689,217.318,409.659,209.196,408.874z"/>
	<path style="fill:#A08E84;" d="M182.353,406.282c-7.15-0.688-11.589,5.535-12.09,10.71l-4.42,45.776
		c7.116,2.233,14.379,4.125,21.776,5.688l4.76-49.332C192.88,413.952,189.496,406.974,182.353,406.282z"/>
	<path style="fill:#A08E84;" d="M165.772,404.685c-1.993-0.191-3.646,3.377-4.562,7.356l-4.596,47.657
		c2.573,0.927,5.183,1.773,7.797,2.61l4.383-45.458C169.299,411.678,168.438,404.943,165.772,404.685z"/>
	<path style="fill:#A08E84;" d="M238.133,411.667c-8.22-0.793-13.227,5.374-13.728,10.549l-4.895,50.746
		c2.835,0.206,5.673,0.426,8.534,0.531c5.744,0.213,11.436,0.146,17.09-0.049l4.704-48.775
		C250.339,419.498,246.353,412.456,238.133,411.667z"/>
	<path style="fill:#A08E84;" d="M264.822,414.24c-6.952-0.669-11.29,5.564-11.787,10.736l-4.663,48.341
		c7.397-0.352,14.7-1.055,21.914-2.075l4.263-44.191C275.046,421.88,271.778,414.913,264.822,414.24z"/>
	<path style="fill:#A08E84;" d="M281.901,415.889c-3.25-0.31-5.613,6.11-6.11,11.286l-4.233,43.891
		c3.463-0.509,6.9-1.096,10.31-1.758l3.975-41.165C286.34,422.968,285.151,416.203,281.901,415.889z"/>
</g>
<polygon style="fill:#917E73;" points="208.702,416.495 201.919,422.613 207.409,429.913 214.192,423.798 "/>
<polygon style="fill:#AD9789;" points="208.448,419.124 204.323,422.849 207.663,427.284 211.784,423.567 "/>
<polygon style="fill:#917E73;" points="181.83,413.9 175.783,420.092 180.536,427.325 186.583,421.136 "/>
<polygon style="fill:#AD9789;" points="181.579,416.536 177.9,420.294 180.79,424.692 184.466,420.926 "/>
<polygon style="fill:#917E73;" points="165.121,412.292 162.459,418.806 163.824,425.709 166.483,419.199 "/>
<polygon style="fill:#AD9789;" points="164.867,414.924 163.244,418.885 164.078,423.08 165.694,419.12 "/>
<polygon style="fill:#917E73;" points="237.647,419.288 230.788,425.403 236.349,432.71 243.208,426.599 "/>
<polygon style="fill:#AD9789;" points="237.392,421.917 233.223,425.635 236.607,430.077 240.777,426.364 "/>
<polygon style="fill:#917E73;" points="264.295,421.858 258.394,428.062 263.001,435.279 268.898,429.075 "/>
<polygon style="fill:#AD9789;" points="264.041,424.49 260.454,428.26 263.255,432.65 266.842,428.877 "/>
<polygon style="fill:#917E73;" points="281.265,423.499 278.161,429.972 279.971,436.917 283.071,430.444 "/>
<polygon style="fill:#AD9789;" points="281.011,426.128 279.126,430.062 280.222,434.284 282.11,430.35 "/>
<g>
</g>
<g>
</g>
<g>
</g>
<g>
</g>
<g>
</g>
<g>
</g>
<g>
</g>
<g>
</g>
<g>
</g>
<g>
</g>
<g>
</g>
<g>
</g>
<g>
</g>
<g>
</g>
<g>
</g>
</svg>
